<svg width="300" height="306" viewBox="0 0 300 306" fill="none" xmlns="http://www.w3.org/2000/svg">
<path fill-rule="evenodd" clip-rule="evenodd" d="M56.1047 223.567C74.2127 243.637 144.237 232.109 190.345 232.109C210.237 232.109 276.989 242.259 249.424 172.548C159.043 -56.0217 -1.27063 159.977 56.1047 223.567Z" fill="#E7EAEE"/>
<path fill-rule="evenodd" clip-rule="evenodd" d="M136.225 225.182C136.313 225.113 136.405 225.038 136.443 224.932C136.566 224.592 136.084 224.367 135.728 224.375C135.212 224.387 134.55 224.741 134.708 225.241C134.8 225.531 135.15 225.665 135.444 225.611C135.738 225.558 135.988 225.367 136.225 225.182H136.225ZM137.759 219.222C138.149 219.347 138.534 219.5 138.873 219.732C139.51 220.166 139.944 220.841 140.36 221.497C140.659 221.967 140.961 222.447 141.11 222.986C141.271 223.57 141.242 224.193 141.134 224.789C140.798 226.647 139.672 228.342 138.104 229.351C136.536 230.361 134.549 230.67 132.757 230.183C132.408 230.088 132.056 229.959 131.788 229.713C131.562 229.506 131.41 229.23 131.271 228.956C130.541 227.515 130.049 225.913 130.105 224.293C130.161 222.672 130.816 221.032 132.055 220.013C133.611 218.735 135.852 218.613 137.759 219.222" fill="white"/>
<path fill-rule="evenodd" clip-rule="evenodd" d="M220.079 131.052C219.224 131.041 218.423 131.771 218.338 132.637C218.303 132.99 218.451 133.43 218.797 133.479C219.056 133.516 219.284 133.312 219.458 133.113C219.826 132.692 220.143 132.224 220.398 131.724C220.483 131.556 220.559 131.34 220.446 131.19C220.364 131.08 220.214 131.054 220.079 131.052ZM219.709 127.169C220.922 127.6 222.022 128.358 222.866 129.345C223.591 130.194 224.144 131.295 223.991 132.41C223.935 132.818 223.787 133.208 223.618 133.584C222.978 135.005 221.877 136.368 220.365 136.643C219.572 136.788 218.754 136.615 217.991 136.35C217.109 136.045 216.268 135.616 215.499 135.08C215.091 134.796 214.686 134.459 214.507 133.989C214.384 133.666 214.38 133.31 214.385 132.963C214.396 132.105 214.452 131.233 214.746 130.429C215.117 129.411 215.844 128.572 216.616 127.822C216.926 127.521 217.255 127.224 217.653 127.062C218.304 126.798 219.047 126.934 219.709 127.169Z" fill="white"/>
<path fill-rule="evenodd" clip-rule="evenodd" d="M220.08 65.2807C225.101 70.5535 229.065 76.8586 231.659 83.701C231.838 84.171 232.01 84.693 231.84 85.1661C230.532 88.8085 228.006 91.8452 225.529 94.7979C223.946 96.6847 222.363 98.5714 220.781 100.458C219.27 102.259 217.759 104.061 216.197 105.817C208.244 114.757 198.847 122.574 187.964 127.384C187.554 127.566 187.113 127.747 186.671 127.674C186.228 127.602 185.814 127.166 185.93 126.727C187.275 121.626 188.629 116.292 187.55 111.125C187.289 109.879 186.999 108.31 188.014 107.56C196.234 101.489 202.151 92.8113 207.823 84.2513C209.249 82.0989 210.671 79.9406 211.933 77.6852C214.174 73.6809 215.899 69.3805 217.052 64.9272C217.211 64.3161 217.971 64.041 218.574 64.2011C219.176 64.3613 219.647 64.8263 220.08 65.2807" fill="white"/>
<path fill-rule="evenodd" clip-rule="evenodd" d="M63.4775 85.7648C64.2939 93.2797 66.5662 100.628 70.1256 107.263C72.3294 111.372 75.01 115.192 77.6835 119C79.5439 121.65 81.5333 124.412 84.4361 125.782C85.2079 126.146 85.1002 127.279 84.893 128.119C83.9977 131.75 83.5799 135.503 83.6544 139.246C83.6614 139.6 83.6706 139.966 83.5341 140.291C83.0709 141.396 81.4837 141.212 80.3911 140.76C73.6305 137.966 68.4401 132.346 63.5915 126.795C57.2963 119.587 51.0947 112.063 47.3758 103.192C47.123 102.589 46.8776 101.954 46.9199 101.3C46.963 100.633 47.2995 100.027 47.6407 99.4563C51.012 93.8184 55.702 89.0042 61.2117 85.526C61.5998 85.2811 62.0142 85.0355 62.4705 85.0195C62.9268 85.0034 63.4273 85.3027 63.4775 85.7648Z" fill="white"/>
<path fill-rule="evenodd" clip-rule="evenodd" d="M219.094 217.596C219.677 216.59 220.399 215.483 221.53 215.293C221.976 215.218 222.211 214.724 222.363 214.291C224.232 208.952 224.412 203.014 222.87 197.568C222.43 196.013 222.972 194.365 223.508 192.842C224.892 188.912 226.276 184.981 227.66 181.051C226.867 179.655 224.776 179.696 223.705 178.508C222.327 176.978 223.367 174.547 224.446 172.787C230.754 162.502 237.061 152.217 243.369 141.932C244.141 140.672 245.837 140.277 247.258 140.613C248.68 140.949 249.893 141.859 251.062 142.748C255.662 146.247 260.263 149.745 264.863 153.244C267.332 155.121 270.057 157.52 269.915 160.654C269.836 162.388 268.862 163.93 267.919 165.377C264.273 170.97 260.627 176.563 256.982 182.157C254.928 185.308 255.495 189.447 254.874 193.176C253.893 199.067 249.925 203.906 246.251 208.565C242.577 213.225 238.9 218.428 238.694 224.4C238.447 231.518 235.126 238.47 229.779 243.061C231.33 239.229 221.53 240.758 210.32 236.217C212.165 229.572 215.648 223.542 219.094 217.596Z" fill="white"/>
<path fill-rule="evenodd" clip-rule="evenodd" d="M96.0041 234.259C95.3051 233.677 95.0822 232.694 94.9588 231.781C93.5312 221.212 99.6622 210.781 98.5701 200.17C98.0073 194.703 95.5398 189.6 92.4347 185.113C90.2905 182.015 90.1702 177.864 90.9702 174.156C91.7702 170.448 93.384 166.982 94.4724 163.352C99.3127 147.21 93.423 129.966 87.6 114.168C99.2033 108.455 112.744 109.561 125.598 110.335C138.453 111.109 152.277 111.164 162.991 103.855C164.46 119.667 161.222 135.497 158.002 151.035C174.338 149.414 190.675 147.794 207.012 146.173C207.48 146.127 207.992 146.091 208.382 146.362C208.901 146.723 208.981 147.46 209.01 148.102C209.774 164.546 210.237 181.005 210.399 197.467C210.403 197.88 210.389 198.34 210.105 198.633C209.861 198.884 209.489 198.936 209.146 198.975C186.258 201.572 163.37 204.169 140.482 206.766C138.503 206.991 135.683 206.466 135.799 204.432C136.316 195.361 136.014 186.242 134.899 177.228C128.817 176.994 122.693 177.938 116.948 179.996C115.644 180.463 114.077 181.719 114.78 182.935C119.431 190.982 113.659 203.077 119.975 209.832C122.147 212.154 121.996 215.808 121.566 218.992C120.643 225.817 119.076 232.551 116.893 239.069C117.948 231.567 96.6491 238.282 96.0041 234.259Z" fill="white"/>
<path fill-rule="evenodd" clip-rule="evenodd" d="M30.5383 63.9527C30.5578 64.1129 30.4727 64.2811 30.3332 64.3579C30.2222 64.2447 30.1111 64.1316 30 64.0184C30.1665 63.9443 30.3554 63.9231 30.5337 63.9587L30.5383 63.9527Z" fill="#00160A"/>
<path fill-rule="evenodd" clip-rule="evenodd" d="M137.359 219.222C137.749 219.347 138.134 219.5 138.473 219.732C139.11 220.166 139.544 220.841 139.96 221.497C140.259 221.967 140.561 222.447 140.71 222.986C140.871 223.57 140.842 224.193 140.734 224.789C140.398 226.647 139.272 228.342 137.704 229.351C136.136 230.361 134.149 230.67 132.357 230.183C132.008 230.088 131.656 229.959 131.388 229.713C131.162 229.506 131.01 229.23 130.871 228.956C130.141 227.515 129.649 225.913 129.705 224.293C129.761 222.672 130.416 221.032 131.655 220.013C133.211 218.735 135.452 218.613 137.359 219.222M135.173 228.872C136.148 228.721 137.006 228.073 137.567 227.246C138.127 226.42 138.415 225.429 138.553 224.435C138.631 223.867 138.639 223.217 138.245 222.807C138.009 222.561 137.673 222.452 137.35 222.353C136.138 221.984 134.754 221.67 133.668 222.331C132.877 222.813 132.437 223.706 132.037 224.551C131.569 225.541 131.685 226.79 132.326 227.674C132.967 228.558 134.106 229.037 135.173 228.872V228.872Z" fill="#00160A"/>
<path fill-rule="evenodd" clip-rule="evenodd" d="M181.896 174.634C181.913 174.423 181.937 174.197 182.074 174.038C182.208 173.883 182.419 173.827 182.617 173.78C187.71 172.573 192.971 172.1 198.194 172.382C198.859 172.417 199.714 172.647 199.758 173.323C200.011 177.203 200.263 181.082 200.515 184.962C200.528 185.158 200.534 185.376 200.411 185.527C200.31 185.651 200.148 185.699 199.996 185.739C194.564 187.181 188.838 187.465 183.294 186.568C183.152 186.545 183.001 186.518 182.891 186.423C182.757 186.309 182.71 186.123 182.671 185.95C181.854 182.246 181.592 178.417 181.896 174.634ZM183.097 181.069C183.197 182.534 183.499 183.985 183.991 185.366C184.481 185.438 184.967 185.541 185.456 185.626C189.669 186.352 193.978 185.621 198.19 184.891C198.489 184.84 198.817 184.771 199.001 184.526C199.19 184.275 199.165 183.927 199.131 183.613C198.986 182.277 198.84 180.94 198.695 179.603C198.684 179.495 198.669 179.38 198.597 179.299C198.51 179.202 198.368 179.186 198.239 179.178C195.245 178.977 192.242 179.204 189.25 179.432C187.597 179.557 185.943 179.683 184.289 179.809C183.901 179.838 183.459 179.897 183.236 180.222C183.071 180.461 183.077 180.778 183.097 181.069ZM183.143 175.478C182.882 176.332 182.835 177.254 183.008 178.131C183.039 178.289 183.083 178.455 183.201 178.563C183.375 178.722 183.64 178.696 183.872 178.661C186.689 178.241 189.537 178.032 192.384 178.037C192.786 178.038 192.909 177.487 192.905 177.078C192.898 176.479 192.892 175.88 192.886 175.281C192.882 174.934 192.865 174.552 192.632 174.299C192.352 173.995 191.883 174.005 191.475 174.037C190.532 174.11 189.589 174.183 188.645 174.257C188.194 174.292 186.997 174.604 186.447 174.641C185.49 174.796 184.532 174.952 183.574 175.108C183.472 175.124 183.364 175.143 183.286 175.212C183.209 175.278 183.173 175.38 183.143 175.478ZM195.774 178.085C196.522 178.094 197.272 178.018 198.004 177.858C198.178 177.82 198.361 177.771 198.486 177.641C198.668 177.45 198.666 177.151 198.653 176.884C198.614 176.112 198.576 175.339 198.537 174.567C198.523 174.291 198.493 173.981 198.281 173.808C198.095 173.657 197.832 173.666 197.595 173.682C196.762 173.74 195.93 173.797 195.097 173.855C194.965 173.864 194.827 173.876 194.717 173.95C194.515 174.086 194.485 174.37 194.479 174.616C194.461 175.434 194.494 176.255 194.578 177.069C194.602 177.305 194.636 177.553 194.779 177.74C195.002 178.032 195.411 178.08 195.774 178.085Z" fill="#20C030"/>
<path fill-rule="evenodd" clip-rule="evenodd" d="M194.932 157.68C196.044 157.189 197.41 157.353 198.38 158.094C199.349 158.835 199.886 160.124 199.735 161.349C200.417 160.973 201.282 160.604 201.918 161.054C202.636 161.563 202.472 162.659 202.364 163.544C202.176 165.089 202.42 166.686 203.062 168.099C203.327 168.683 203.554 169.569 202.967 169.804C202.867 169.844 202.759 169.853 202.653 169.862C195.761 170.428 188.869 170.993 181.977 171.559C181.788 171.574 181.577 171.583 181.434 171.456C181.288 171.326 181.269 171.106 181.261 170.909C181.195 169.259 181.129 167.608 181.063 165.958C181.046 165.515 181.037 165.038 181.283 164.672C181.689 164.066 182.541 164.068 183.252 163.952C183.963 163.836 184.79 163.225 184.517 162.547C184.211 161.791 185.251 161.238 186.045 161.115C186.839 160.992 187.892 160.51 187.652 159.73C187.389 158.878 188.54 158.349 189.41 158.232C190.023 158.149 190.665 158.069 191.247 158.283C191.829 158.497 192.321 159.107 192.19 159.723C192.04 160.428 192.883 161.085 193.548 160.836C194.213 160.587 194.483 159.662 194.146 159.027C193.871 158.508 194.401 157.914 194.932 157.68ZM198.491 168.556C198.233 168.07 198.231 167.49 198.229 166.938C198.218 164.342 198.061 161.746 197.76 159.168C197.744 159.038 197.72 158.893 197.616 158.817C197.525 158.751 197.404 158.759 197.294 158.769C196.755 158.82 196.117 158.941 195.905 159.448C195.814 159.664 195.825 159.908 195.837 160.142C195.973 162.744 196.11 165.346 196.246 167.948C196.259 168.19 196.291 168.468 196.489 168.604C196.596 168.678 196.732 168.691 196.862 168.699C197.408 168.729 197.958 168.681 198.491 168.556ZM189.221 164.556C189.154 164.989 189.06 165.42 189.035 165.858C188.993 166.59 189.145 167.317 189.295 168.034C189.392 168.494 189.976 168.721 190.403 168.543C190.831 168.366 191.089 167.901 191.161 167.437C191.232 166.972 191.148 166.5 191.076 166.035C190.79 164.211 190.666 162.361 190.707 160.514C190.717 160.047 190.269 159.625 189.812 159.671C189.356 159.717 188.998 160.22 189.098 160.676C189.377 161.947 189.419 163.27 189.221 164.556ZM193.753 162.064C193.485 161.706 192.869 161.897 192.659 162.294C192.45 162.691 192.514 163.172 192.566 163.62C192.701 164.789 192.714 165.973 192.604 167.145C192.572 167.491 192.536 167.868 192.723 168.158C193.011 168.604 193.644 168.6 194.165 168.546C194.329 168.529 194.517 168.497 194.599 168.352C194.656 168.251 194.643 168.126 194.628 168.01C194.387 166.192 194.147 164.374 193.906 162.555C193.883 162.383 193.857 162.202 193.753 162.064ZM199.723 162.845C199.521 163.127 199.478 163.492 199.461 163.841C199.4 165.034 199.556 166.227 199.711 167.412C199.772 167.878 199.981 168.478 200.443 168.446C200.91 168.414 201.032 167.777 201.022 167.3C200.993 166.036 200.964 164.773 200.935 163.509C200.928 163.177 200.893 162.792 200.622 162.607C200.338 162.412 199.926 162.564 199.723 162.845ZM185.597 162.547C185.597 162.547 185.802 164.196 185.874 165.036C185.964 166.091 186.078 167.144 186.217 168.193C186.237 168.346 186.264 168.511 186.375 168.616C186.566 168.797 187.305 168.677 187.441 168.449C187.577 168.221 187.569 167.937 187.557 167.67C187.52 166.828 187.482 165.986 187.445 165.144C187.405 164.241 187.194 162.294 187.194 162.294M182.918 168.518C182.977 168.707 183.047 168.905 183.197 169.031C183.489 169.278 183.964 169.125 184.195 168.818C184.426 168.511 184.478 168.106 184.522 167.721C184.576 167.25 184.629 166.76 184.479 166.31C184.329 165.861 183.913 165.465 183.449 165.507C183.022 165.546 182.691 165.943 182.591 166.368C182.492 166.792 182.576 167.238 182.679 167.661C182.75 167.95 182.83 168.235 182.918 168.518Z" fill="#E7EAEE"/>
<path fill-rule="evenodd" clip-rule="evenodd" d="M210.856 100.988C210.3 101.838 209.696 102.7 208.835 103.225C207.974 103.75 206.786 103.852 206.012 103.201C205.159 102.483 205.106 101.188 205.173 100.063C205.199 99.6299 205.234 99.1932 205.355 98.7773C205.567 98.0559 206.029 97.4403 206.511 96.8695C207.095 96.177 207.743 95.509 208.554 95.1192C209.366 94.7295 210.374 94.6611 211.134 95.146C212.044 95.7264 212.38 96.961 212.208 98.04C212.036 99.1189 211.451 100.078 210.856 100.988ZM209.089 101.888C209.791 101.127 210.393 100.271 210.873 99.3488C211.19 98.7422 211.459 98.0829 211.447 97.3962C211.434 96.7094 211.078 95.9916 210.452 95.7368C209.636 95.4049 208.74 95.9358 208.058 96.5C207.573 96.9016 207.103 97.3422 206.791 97.8945C206.594 98.2438 206.467 98.628 206.34 99.0095C206.1 99.7312 205.857 100.483 205.948 101.239C206.039 101.996 206.571 102.755 207.315 102.833C208.004 102.905 208.615 102.402 209.089 101.888Z" fill="#20C030"/>
<path fill-rule="evenodd" clip-rule="evenodd" d="M67.5197 110.6C68.3914 111.499 69.111 112.55 69.6373 113.694C70.1663 114.844 69.633 116.322 68.5948 117.025C67.5567 117.729 66.153 117.719 65.0147 117.201C63.8764 116.683 62.9819 115.715 62.323 114.637C61.8263 113.825 61.4412 112.914 61.3999 111.957C61.3586 111.001 61.7044 109.995 62.4474 109.408C63.1989 108.815 64.2556 108.73 65.1644 109.015C66.0732 109.3 66.8517 109.911 67.5197 110.6M64.1186 110.053C63.3644 109.974 62.6944 110.679 62.565 111.44C62.4356 112.2 62.7204 112.972 63.0889 113.647C63.8881 115.11 65.3139 116.409 66.9562 116.329C67.8004 116.287 68.7257 115.692 68.7107 114.831C68.7043 114.459 68.524 114.116 68.3439 113.792C67.8656 112.932 67.349 112.08 66.659 111.384C65.969 110.689 65.0845 110.155 64.1186 110.053Z" fill="#20C030"/>
<path fill-rule="evenodd" clip-rule="evenodd" d="M133.429 223.777C134.035 223.309 134.788 223.006 135.547 223.056C136.305 223.105 137.057 223.549 137.374 224.252C137.715 225.007 137.502 225.945 136.971 226.576C136.439 227.207 135.638 227.555 134.83 227.67C134.279 227.748 133.621 227.678 133.319 227.201C133.173 226.971 133.14 226.688 133.111 226.416C133.058 225.928 133.006 225.44 132.953 224.951C132.931 224.744 132.909 224.53 132.975 224.333C133.051 224.101 133.238 223.925 133.429 223.777M135.825 225.182C135.913 225.113 136.005 225.038 136.043 224.932C136.166 224.592 135.684 224.367 135.328 224.375C134.812 224.387 134.15 224.741 134.308 225.241C134.4 225.531 134.75 225.665 135.044 225.611C135.338 225.558 135.588 225.367 135.825 225.182H135.825Z" fill="#00160A"/>
<path fill-rule="evenodd" clip-rule="evenodd" d="M219.196 67.6603C223.913 72.6329 227.637 78.5789 230.075 85.0317C230.242 85.4749 230.404 85.9672 230.245 86.4133C229.015 89.8484 226.642 92.7121 224.315 95.4967L219.854 100.835C218.435 102.533 217.015 104.232 215.548 105.888C208.076 114.319 199.248 121.691 189.024 126.228C188.638 126.399 188.224 126.569 187.808 126.501C187.393 126.433 187.003 126.022 187.112 125.608C188.376 120.797 189.649 115.766 188.634 110.894C188.39 109.719 188.117 108.239 189.071 107.532C196.793 101.807 202.352 93.6232 207.681 85.5506C209.02 83.5208 210.357 81.4854 211.542 79.3585C213.647 75.5821 215.268 71.5266 216.352 67.327C216.5 66.7507 217.215 66.4912 217.781 66.6422C218.347 66.7932 218.789 67.2318 219.196 67.6603ZM215.894 73.8354C215.415 73.6335 214.973 74.1795 214.728 74.6455C214.468 75.1418 214.208 75.6389 213.948 76.1364L213.936 76.161L213.935 76.1611C209.047 85.5093 204.085 95.0009 196.636 102.364C195.932 103.06 195.146 103.9 195.275 104.89C195.691 108.063 194.027 111.414 191.271 112.955C190.02 113.654 190.034 115.459 190.218 116.9C190.291 117.478 190.505 118.201 191.075 118.25C192.745 118.393 194.348 119.23 195.437 120.528C195.78 120.937 196.431 120.681 196.879 120.395C208.148 113.182 216.806 102.528 225.26 92.06C225.551 91.6989 225.862 91.2439 225.71 90.8027C224.43 87.0924 224.635 82.8757 226.268 79.3121C225.305 77.3601 224.156 75.5026 222.844 73.7738C220.661 74.7389 218.094 74.7616 215.894 73.8354ZM189.166 124.322C189.611 124.559 190.149 124.334 190.594 124.097C191.762 123.476 192.888 122.771 193.96 121.989C194.243 121.783 194.327 121.37 194.227 121.03C194.127 120.69 193.876 120.416 193.599 120.202C192.732 119.532 191.521 119.356 190.505 119.752C190.318 119.825 190.131 119.921 190.002 120.077C189.85 120.261 189.795 120.505 189.746 120.739C189.501 121.924 189.307 123.12 189.166 124.322ZM220.811 71.3647C220.046 69.8404 218.865 68.535 217.436 67.6329C216.938 68.0791 216.842 68.7572 216.743 69.4485C216.676 69.9228 216.607 70.4033 216.408 70.8194C216.343 70.955 216.263 71.0846 216.184 71.2139C216.033 71.4602 215.883 71.7054 215.835 71.9882C215.761 72.4196 216.119 72.9607 216.526 72.818C216.856 72.7019 217.203 72.7765 217.552 72.8516C217.737 72.8913 217.922 72.9312 218.106 72.9433C219.179 73.0138 220.07 72.1578 220.811 71.3647ZM226.88 80.5009C226.06 82.1621 226.189 84.1241 226.338 85.9772L226.552 88.6347C226.576 88.927 226.732 89.3214 227.009 89.2404C227.181 88.7509 227.508 88.3471 227.836 87.9422C228.123 87.588 228.41 87.233 228.595 86.8191C229.221 85.4175 228.526 83.8021 227.842 82.4292L226.88 80.5009ZM190.163 109.997C190.198 110.517 190.728 110.906 191.239 110.891C191.751 110.877 192.211 110.54 192.51 110.117C192.809 109.694 192.973 109.19 193.133 108.695L193.66 107.061C193.807 106.605 193.816 105.908 193.348 105.855C193.179 105.835 193.018 105.926 192.879 106.027C192.354 106.406 191.972 106.952 191.6 107.487L190.587 108.944C190.368 109.26 190.138 109.611 190.163 109.997ZM69.3256 105.634C65.7662 98.9985 63.4939 91.6506 62.6775 84.1357C62.6273 83.6737 62.1269 83.3743 61.6705 83.3904C61.2142 83.4065 60.7998 83.652 60.4118 83.8969C54.902 87.3751 50.212 92.1893 46.8407 97.8272C46.4995 98.3979 46.1631 99.0039 46.12 99.6706C46.0777 100.325 46.323 100.96 46.5758 101.563C50.2947 110.434 56.4963 117.958 62.7915 125.166C67.6402 130.717 72.8306 136.337 79.5911 139.131C80.6838 139.582 82.2709 139.766 82.7341 138.662C82.8689 138.341 82.8617 137.98 82.8547 137.63L82.8544 137.617C82.7799 133.874 83.1977 130.121 84.0931 126.49C84.3002 125.65 84.4079 124.517 83.6361 124.153C80.7333 122.783 78.7439 120.021 76.8835 117.371C74.2101 113.562 71.5294 109.742 69.3256 105.634ZM75.6092 134.639C75.2093 134.748 74.81 134.491 74.4761 134.242C68.3231 129.652 63.5548 123.439 58.8699 117.31L50.6022 106.494C51.9978 105.589 52.1749 103.623 52.2054 101.939C52.2449 99.7491 52.2738 97.495 51.497 95.453C51.3244 94.9992 51.5491 94.4962 51.7898 94.0757C52.8221 92.2722 54.2537 90.7072 55.9473 89.5309C56.1113 89.417 56.2848 89.3038 56.4813 89.2756C57 89.201 57.3979 89.7146 57.675 90.1671C58.7696 91.9543 60.274 93.9755 62.3376 93.8283C63.1233 93.7723 63.5591 94.7147 63.7883 95.4819C66.6388 105.023 71.9907 113.63 78.267 121.286C79.0826 122.281 79.2872 123.624 79.49 124.955C79.7161 126.439 79.9399 127.908 81.0061 128.862C81.9164 129.676 81.7474 131.139 81.5018 132.348C81.4515 132.595 81.3917 132.86 81.2072 133.029C81.0702 133.154 80.885 133.206 80.7071 133.254L75.6092 134.639ZM61.0223 91.6181C59.8935 90.8151 58.9185 89.7889 58.1676 88.6137C58.0052 88.3595 57.8475 88.0746 57.876 87.7728C57.907 87.4445 58.1495 87.1819 58.3909 86.962C58.9868 86.4189 59.6603 85.9643 60.3837 85.6169C60.6485 85.4896 60.9905 85.3863 61.2106 85.5831C61.3401 85.6989 61.381 85.884 61.4148 86.0562L62.4574 91.3651C62.519 91.6789 62.1957 91.9616 61.8815 91.9707C61.5672 91.9798 61.2799 91.8014 61.0223 91.6181ZM50.7053 101.886C50.6833 102.885 50.6083 104.006 49.8733 104.667C49.7195 104.686 49.6174 104.514 49.5571 104.369C49.0275 103.092 48.4906 101.785 48.4072 100.402C48.3239 99.0191 48.7791 97.5215 49.889 96.7198C50.0392 96.6114 50.2595 96.5218 50.3921 96.6519C50.4453 96.7042 50.4681 96.7801 50.4876 96.8528C50.7891 97.9816 50.7654 99.1704 50.7396 100.34L50.7053 101.886ZM80.6575 135.102C80.8358 135.25 80.8548 135.516 80.8596 135.75L80.9126 138.317C79.8785 137.733 78.8878 137.07 77.9517 136.334C77.7743 136.195 77.5792 135.969 77.6879 135.769C77.7418 135.67 77.8539 135.623 77.9582 135.584C78.6273 135.332 79.3192 135.144 80.0221 135.021C80.2394 134.983 80.4869 134.959 80.6575 135.102ZM80.717 124.991C80.7076 124.875 80.7076 124.749 80.7752 124.655C80.9538 124.408 81.3414 124.632 81.5052 124.889C81.8997 125.51 81.9869 126.322 81.733 127.015C81.1536 126.509 80.7804 125.766 80.717 124.991ZM234.748 105.502C235.779 104.18 237.657 103.99 239.314 104.031C239.702 104.041 240.1 104.06 240.452 104.224C241.433 104.678 241.641 105.983 241.674 107.079C241.704 108.077 241.698 109.087 241.46 110.055C241.222 111.024 240.73 111.956 239.942 112.55C239.588 112.817 239.177 113.012 238.743 113.086C238.071 113.201 237.384 113.025 236.746 112.783C235.896 112.461 235.089 112.019 234.357 111.472C234 111.206 233.63 110.856 233.619 110.405C233.592 109.365 233.707 108.321 233.958 107.312C234.118 106.667 234.342 106.023 234.748 105.502ZM237.421 112.084C238.744 112.471 240.152 111.429 240.653 110.123C241.154 108.818 240.969 107.351 240.693 105.978C240.587 105.45 240.034 105.156 239.524 105.015C238.734 104.797 237.895 104.768 237.092 104.931C236.693 105.012 236.286 105.151 236.006 105.452C235.854 105.615 235.748 105.818 235.645 106.017L234.869 107.509C234.733 107.771 234.596 108.036 234.516 108.321C234.276 109.175 234.593 110.123 235.178 110.781C235.764 111.439 236.583 111.839 237.421 112.084ZM219.709 127.169C220.922 127.6 222.022 128.358 222.866 129.345C223.591 130.194 224.144 131.295 223.991 132.41C223.935 132.818 223.787 133.208 223.618 133.584C222.978 135.005 221.877 136.368 220.365 136.643C219.572 136.788 218.754 136.615 217.991 136.35C217.109 136.045 216.268 135.616 215.499 135.08C215.091 134.796 214.686 134.459 214.507 133.989C214.384 133.666 214.38 133.31 214.385 132.963C214.396 132.105 214.452 131.233 214.746 130.429C215.117 129.411 215.844 128.572 216.616 127.822C216.926 127.521 217.255 127.224 217.653 127.062C218.304 126.798 219.047 126.934 219.709 127.169ZM220.95 134.646C221.827 133.762 222.337 132.481 222.198 131.233C222.059 129.985 221.229 128.814 220.069 128.387C219.586 128.21 219.052 128.161 218.557 128.3C218.291 128.375 218.041 128.503 217.807 128.654C216.809 129.301 216.107 130.405 215.937 131.597C215.767 132.79 216.13 134.051 216.907 134.961C217.405 135.544 218.216 135.793 218.968 135.697C219.721 135.6 220.411 135.189 220.95 134.646ZM110.194 119.811C110.153 119.222 109.38 119.068 108.801 119.085C105.76 119.176 102.723 119.408 99.7031 119.78C99.207 119.841 99.1669 120.656 99.565 120.963C99.9631 121.271 100.518 121.214 101.013 121.142L110.194 119.811ZM100.473 123.79C100.499 123.487 100.873 123.378 101.17 123.343L119.081 121.278C119.405 121.241 119.75 121.207 120.042 121.355C120.333 121.504 120.521 121.91 120.331 122.18C120.191 122.378 119.921 122.419 119.682 122.442L101.362 124.252C100.981 124.29 100.439 124.178 100.473 123.79ZM140.627 126.862C139.625 127.086 138.596 126.718 137.635 126.352C134.528 125.17 131.432 123.955 128.35 122.707C127.105 122.204 125.74 122.958 124.62 123.706C121.381 125.873 118.263 128.226 115.284 130.751C114.519 131.4 113.342 130.945 112.571 130.304C112.408 130.169 112.247 130.024 112.086 129.879L112.086 129.879C111.485 129.339 110.877 128.791 110.099 128.679C108.905 128.506 107.854 129.428 106.988 130.284L101.405 135.805C100.654 136.547 99.8638 137.736 100.532 138.556C100.973 139.098 101.782 139.07 102.468 138.989C106.05 138.566 109.614 137.974 113.177 137.381L113.177 137.381C119.065 136.402 124.95 135.423 130.906 135.213C132.225 135.167 133.546 135.158 134.867 135.15C135.693 135.144 136.52 135.139 137.347 135.124C141.076 135.058 144.802 134.802 148.506 134.358C148.685 134.336 148.889 134.299 148.982 134.141C149.053 134.023 149.035 133.873 149.015 133.735L147.446 122.866C147.366 122.314 147.227 121.675 146.731 121.437C146.231 121.196 145.641 121.506 145.23 121.884C144.586 122.476 144.091 123.262 143.602 124.037C142.8 125.308 142.016 126.551 140.627 126.862ZM115.148 132.81C118.499 130.004 121.993 127.376 125.611 124.94C126.354 124.439 127.257 123.927 128.087 124.256L136.861 127.727C138.325 128.306 139.927 128.893 141.43 128.429C143.178 127.889 144.222 126.118 145.102 124.489C145.273 124.172 145.771 124.208 146.018 124.469C146.264 124.729 146.327 125.112 146.378 125.47L147.02 130.003C147.118 130.699 147.215 131.421 147.018 132.095C146.82 132.769 146.24 133.381 145.549 133.368C134.256 133.146 122.94 134.094 111.834 136.193C111.49 136.258 111.146 136.324 110.801 136.39C108.148 136.9 105.485 137.412 102.789 137.421C104.091 135.544 105.741 133.949 107.379 132.367C108.279 131.499 109.403 130.563 110.611 130.847C111.263 131 111.763 131.477 112.261 131.952C112.42 132.104 112.58 132.256 112.744 132.397C113.419 132.977 114.465 133.381 115.148 132.81ZM260.037 164.43C259.738 164.543 259.404 164.466 259.099 164.368C257.034 163.707 255.356 162.229 253.708 160.776C253.485 160.579 253.262 160.383 253.039 160.189C250.308 157.817 247.344 155.723 244.205 153.948C243.886 153.768 243.551 153.578 243.356 153.264C243.16 152.949 243.166 152.471 243.468 152.262C244.875 151.283 245.787 149.605 245.854 147.871C245.872 147.409 246.385 147.101 246.838 147.138C247.29 147.175 247.685 147.452 248.055 147.719L262.396 158.084C262.675 158.286 262.975 158.52 263.044 158.861C263.1 159.14 262.985 159.422 262.87 159.681C262.251 161.071 261.54 162.417 260.742 163.709C260.562 164.001 260.355 164.309 260.037 164.43ZM245.691 152.134C245.522 152.437 245.376 152.875 245.649 153.084L257.352 162.055C257.992 162.547 258.988 163.007 259.493 162.372C260.072 161.643 260.614 160.882 261.114 160.095C261.25 159.879 261.39 159.633 261.341 159.381C261.296 159.151 261.106 158.985 260.927 158.837C256.632 155.291 252.085 152.063 247.333 149.185L245.691 152.134ZM239.867 157.62C240.056 157.29 240.285 156.929 240.652 156.848C240.932 156.786 241.218 156.908 241.476 157.036C242.885 157.733 244.176 158.677 245.274 159.815C245.538 160.089 245.57 160.529 245.453 160.894C245.335 161.258 245.093 161.565 244.855 161.863C244.474 162.342 244.067 162.84 243.503 163.068C242.896 163.313 242.188 163.195 241.613 162.879C241.037 162.563 240.575 162.069 240.168 161.549C239.636 160.869 239.161 160.054 239.243 159.19C239.297 158.623 239.585 158.112 239.867 157.62ZM242.331 161.424C243.218 161.775 243.784 161.497 243.808 160.905C243.822 160.532 243.502 160.244 243.212 160.016L242.331 159.327C242.04 159.099 241.72 158.861 241.353 158.863C240.986 158.865 240.612 159.251 240.762 159.592C240.74 159.756 241.445 161.073 242.331 161.424ZM238.833 168.709C239.05 168.829 239.279 168.947 239.525 168.952C239.771 168.958 240.038 168.816 240.099 168.572C240.241 168.002 240.612 167.528 240.975 167.065L240.975 167.065C241.015 167.015 241.054 166.964 241.093 166.914C241.491 166.401 241.875 165.821 241.885 165.167C241.896 164.514 241.365 163.818 240.729 163.907C240.229 163.978 239.763 163.644 239.399 163.286C239.378 163.265 239.356 163.243 239.334 163.221L239.272 163.159L239.226 163.112C238.922 162.803 238.612 162.489 238.208 162.355C237.728 162.195 237.073 162.449 237.035 162.962C236.959 163.996 236.115 164.774 235.332 165.437C235.098 165.635 235.31 166.016 235.529 166.231C236.515 167.202 237.63 168.038 238.833 168.709ZM238.99 166.739L237.448 165.678C237.057 165.408 237.088 164.747 237.437 164.422C237.787 164.097 238.33 164.072 238.775 164.235C239.221 164.397 239.591 164.716 239.951 165.029C240.189 165.236 240.222 165.613 240.113 165.912C240.004 166.211 239.782 166.45 239.566 166.681C239.492 166.76 239.409 166.844 239.303 166.858C239.19 166.872 239.084 166.804 238.99 166.739ZM251.209 166.809L251.962 165.179C252.193 164.68 252.417 164.062 252.105 163.611C251.997 163.454 251.837 163.343 251.682 163.236L248.94 161.355C248.644 161.152 248.323 160.941 247.967 160.947C247.544 160.954 247.19 161.261 246.89 161.564C246.441 162.017 246.021 162.501 245.633 163.01C245.338 163.398 245.096 164.037 245.499 164.306L249.695 167.109C250.026 167.33 250.446 167.557 250.794 167.364C250.998 167.251 251.11 167.023 251.209 166.809ZM250.279 165.655C250.103 165.696 249.919 165.651 249.746 165.598C248.686 165.273 247.717 164.65 246.972 163.817C246.724 163.54 246.865 163.051 247.179 162.857C247.494 162.663 247.903 162.707 248.242 162.852C248.462 162.946 248.662 163.076 248.863 163.207L248.863 163.207C248.973 163.279 249.083 163.35 249.196 163.416C249.318 163.487 249.445 163.552 249.572 163.616C249.933 163.8 250.294 163.985 250.54 164.303C250.872 164.734 250.803 165.532 250.279 165.655ZM251.696 167.476C252.18 167.359 252.327 166.857 252.481 166.335C252.608 165.904 252.739 165.46 253.066 165.207C253.63 164.773 254.429 165.136 255.037 165.504L256.97 166.675C257.278 166.861 257.593 167.055 257.814 167.342C258.035 167.629 258.144 168.036 257.989 168.365C257.886 168.585 257.691 168.731 257.495 168.878C257.334 168.998 257.172 169.119 257.058 169.282C256.913 169.492 256.859 169.755 256.806 170.014C256.739 170.34 256.673 170.661 256.428 170.866C255.983 171.239 255.322 170.94 254.83 170.634L252.107 168.94C251.832 168.769 251.543 168.581 251.408 168.284C251.273 167.986 251.383 167.552 251.696 167.476ZM255.266 169.159C255.656 169.023 255.969 168.729 256.27 168.442C256.488 168.234 256.196 167.892 255.936 167.743L254.268 166.787C254.094 166.687 253.852 166.596 253.717 166.746C253.282 167.229 253.219 168.017 253.571 168.565C253.923 169.113 254.657 169.37 255.266 169.159ZM236.125 169.099C235.751 168.992 235.371 168.883 235.066 168.671C234.592 168.342 233.933 168.422 233.436 168.713C232.938 169.003 232.568 169.469 232.209 169.925C232.01 170.177 231.805 170.441 231.729 170.755C231.653 171.07 231.744 171.451 232.022 171.609L234.931 173.26C235.151 173.385 235.397 173.514 235.644 173.459C235.889 173.403 236.058 173.182 236.206 172.975L236.954 171.926C237.371 171.342 237.806 170.598 237.501 169.947C237.257 169.425 236.699 169.264 236.125 169.099ZM235.204 171.816C235.052 171.857 234.895 171.782 234.755 171.709L232.773 170.682C233.154 170.133 233.879 169.923 234.536 169.989C235.193 170.055 235.803 170.353 236.398 170.646L235.487 171.609C235.405 171.695 235.317 171.785 235.204 171.816ZM221.473 130.749C221.78 131.226 221.684 131.862 221.48 132.393C221.212 133.092 220.759 133.74 220.118 134.112C219.477 134.485 218.636 134.539 218.012 134.139C217.388 133.739 217.074 132.85 217.409 132.181C217.486 132.026 217.592 131.889 217.697 131.752L217.697 131.752C217.798 131.62 217.899 131.489 217.976 131.342C218.026 131.246 218.065 131.143 218.104 131.041C218.161 130.893 218.217 130.746 218.306 130.617C218.624 130.159 219.25 130.069 219.801 130.077C220.425 130.086 221.131 130.217 221.473 130.749ZM220.079 131.052C219.224 131.041 218.423 131.771 218.338 132.637C218.303 132.99 218.451 133.43 218.797 133.479C219.056 133.516 219.284 133.312 219.458 133.113C219.826 132.692 220.143 132.224 220.398 131.724C220.483 131.556 220.559 131.34 220.446 131.19C220.364 131.08 220.214 131.054 220.079 131.052ZM240.519 108.357C240.453 107.56 239.929 106.777 239.169 106.577C238.203 106.323 237.267 107.016 236.5 107.666C236.273 107.858 236.036 108.064 235.94 108.348C235.777 108.831 236.07 109.338 236.359 109.755C236.69 110.232 237.043 110.711 237.526 111.026C238.008 111.342 238.652 111.464 239.158 111.19C239.417 111.05 239.617 110.822 239.792 110.584C240.261 109.942 240.584 109.154 240.519 108.357ZM238.376 110.4C238.049 110.45 237.709 110.315 237.468 110.084C237.107 109.738 236.964 109.181 237.09 108.693C237.223 108.179 237.647 107.754 238.154 107.627C238.661 107.501 239.23 107.677 239.582 108.07C239.569 108.177 239.558 108.284 239.547 108.391L239.547 108.393C239.509 108.759 239.472 109.126 239.347 109.47C239.186 109.916 238.837 110.329 238.376 110.4ZM212.375 234.685C214.156 228.269 217.519 222.447 220.847 216.706C221.409 215.735 222.107 214.666 223.198 214.482C223.629 214.41 223.856 213.933 224.002 213.515C225.807 208.36 225.981 202.627 224.492 197.369C224.067 195.867 224.591 194.276 225.108 192.806L229.117 181.421C228.7 180.687 227.912 180.364 227.113 180.038C226.445 179.764 225.77 179.488 225.299 178.965C223.968 177.489 224.972 175.141 226.014 173.441L244.284 143.651C245.03 142.434 246.667 142.053 248.04 142.377C249.412 142.701 250.584 143.581 251.712 144.439L265.037 154.572C267.421 156.385 270.052 158.701 269.915 161.727C269.839 163.402 268.898 164.89 267.988 166.287L257.428 182.489C256.062 184.584 255.897 187.131 255.73 189.689C255.655 190.847 255.579 192.006 255.393 193.127C254.482 198.598 250.904 203.128 247.476 207.468C247.34 207.641 247.203 207.814 247.067 207.987C243.519 212.486 239.969 217.509 239.77 223.276C239.532 230.148 236.326 236.86 231.162 241.293L235.656 230.195C236.724 227.555 237.714 224.272 235.925 222.073C235.116 221.078 233.893 220.552 232.72 220.061L225.742 217.146C225.26 216.945 224.764 216.741 224.244 216.738C222.623 216.728 221.659 218.518 221.001 220.027C218.727 225.246 215.823 230.181 212.375 234.685ZM235.32 219.612C236.517 220.063 238.201 220.337 238.768 219.174C241.513 213.541 244.332 207.801 248.7 203.357C251.217 200.796 252.761 197.378 253.634 193.865C254.507 190.352 254.754 186.713 254.998 183.098C253.938 183.491 253.846 184.948 253.85 186.096C253.86 188.628 253.426 191.161 252.573 193.539C252.394 194.037 252.155 194.575 251.677 194.785C251.199 194.995 250.495 194.573 250.656 194.069C251.888 190.2 252.348 186.078 251.998 182.026C251.889 180.77 251.659 179.426 250.782 178.536C250.878 180.52 250.973 182.512 250.775 184.488C250.434 187.906 249.23 191.165 248.037 194.379C247.882 194.796 247.695 195.251 247.301 195.447C246.908 195.643 246.297 195.332 246.4 194.899L248.186 187.379C249.169 183.244 250.135 178.796 248.614 174.834C247.848 174.782 247.668 175.897 247.736 176.676C248.205 182.008 246.757 187.3 245.323 192.451C245.156 193.052 244.564 193.804 244.104 193.391C243.905 193.212 243.896 192.905 243.912 192.636C244.003 191.121 244.41 189.655 244.818 188.19L244.818 188.19C244.944 187.735 245.07 187.281 245.187 186.825C246.264 182.625 246.539 178.212 245.992 173.907C245.048 175.138 244.647 176.701 244.27 178.215L242.027 187.202C241.013 191.265 239.718 195.732 236.203 197.914C235.923 198.088 235.598 198.25 235.279 198.173C234.883 198.077 234.658 197.66 234.493 197.281C232.249 192.136 231.969 186.133 233.723 180.795C233.829 180.471 233.506 180.132 233.171 180.105C232.837 180.079 232.523 180.264 232.249 180.461C229.371 182.529 228.269 186.274 227.353 189.738L226.136 194.343C225.958 195.015 225.779 195.694 225.742 196.389C225.686 197.446 225.957 198.481 226.227 199.51L226.227 199.51C226.289 199.748 226.352 199.986 226.41 200.224C227.581 205.008 227.052 210.204 224.942 214.643C224.631 215.297 225.452 215.892 226.122 216.144L235.32 219.612ZM239.867 175.664C239.387 175.327 238.873 174.943 238.725 174.369C238.497 173.489 239.32 172.606 240.206 172.487C241.092 172.369 241.959 172.804 242.693 173.323C243.728 174.053 245.037 172.94 245.811 171.929C244.767 171.293 243.77 170.305 243.729 169.066C243.688 167.827 245.167 166.648 246.151 167.377C246.533 167.66 246.995 167.833 247.453 168.004C248.137 168.26 248.81 168.512 249.186 169.123C249.613 169.817 249.461 170.756 249.026 171.446C248.592 172.135 247.922 172.63 247.269 173.108C248.207 173.203 249.12 173.543 249.896 174.088L250.742 171.578C250.808 171.384 250.879 171.18 251.029 171.043C251.319 170.778 251.77 170.86 252.142 170.98C253.116 171.295 254.071 171.786 254.714 172.595C255.357 173.403 255.625 174.578 255.175 175.513C254.726 176.447 253.458 176.946 252.599 176.382C252.421 176.265 252.242 176.109 252.063 175.953C251.584 175.535 251.105 175.117 250.643 175.452C252.054 176.571 253.024 178.252 253.296 180.052C257.739 173.161 262.134 166.238 266.482 159.284C266.897 158.62 267.231 157.574 266.556 157.192C263.669 155.561 261.117 153.377 258.571 151.199C255.358 148.448 252.154 145.706 248.298 144.096C248.053 143.994 247.786 143.895 247.53 143.964C247.262 144.036 247.073 144.273 246.905 144.497C239.724 154.039 233.28 164.156 227.651 174.722C226.866 176.196 227.917 177.954 228.922 179.282C229.425 179.946 230.394 180.647 230.942 180.021C231.633 179.233 232.765 178.783 233.743 179.135C234.721 179.487 235.329 180.782 234.797 181.688C234.413 182.344 235.166 183.073 235.824 183.44C237.138 184.173 238.487 184.843 239.863 185.447C240.055 185.531 240.277 185.614 240.463 185.519C240.641 185.428 240.713 185.213 240.768 185.019L242.293 179.677C242.544 178.799 242.712 177.659 241.972 177.14L239.867 175.664ZM267.144 160.689C266.942 160.618 266.757 160.825 266.638 161.006L255.221 178.407C254.914 178.875 254.599 179.362 254.509 179.917C254.42 180.473 254.62 181.119 255.117 181.366C255.939 181.776 256.799 180.915 257.327 180.153L267.935 164.846C268.722 163.709 268.056 162.155 267.382 160.945C267.323 160.841 267.256 160.728 267.144 160.689ZM235 183.925C234.799 183.776 234.498 183.865 234.33 184.052C234.162 184.238 234.093 184.493 234.029 184.738C233.873 185.341 233.717 185.949 233.693 186.572C233.67 187.194 233.781 187.813 233.892 188.426L234.985 194.477C235.031 194.731 235.085 195 235.262 195.185C235.438 195.37 235.782 195.41 235.925 195.197C237.544 192.788 239.185 190.331 240.031 187.542C240.136 187.195 240.167 186.708 239.833 186.58C238.115 185.922 236.484 185.026 235 183.925ZM247.625 168.996C247.077 168.464 246.353 168.125 245.6 168.047C244.914 167.975 244.518 168.957 244.831 169.583C245.144 170.209 245.836 170.519 246.477 170.78C246.929 170.965 247.477 171.138 247.871 170.847C248.438 170.429 248.132 169.487 247.625 168.996ZM243.118 176.008C243.341 175.846 243.37 175.515 243.308 175.243C243.072 174.219 241.969 173.696 240.979 173.396C240.596 173.28 240.119 173.199 239.849 173.499C239.624 173.749 239.672 174.164 239.866 174.44C240.061 174.716 240.365 174.886 240.659 175.048L242.188 175.886C242.479 176.046 242.849 176.202 243.118 176.008ZM251.821 172.316C251.497 172.757 251.53 173.399 251.801 173.877C252.071 174.354 252.539 174.686 253.032 174.912C253.202 174.989 253.387 175.057 253.569 175.02C253.726 174.989 253.86 174.881 253.955 174.751C254.309 174.27 254.137 173.546 253.732 173.109C253.328 172.673 252.752 172.454 252.197 172.249C252.102 172.214 251.99 172.18 251.903 172.233C251.87 172.254 251.844 172.284 251.821 172.316ZM98.4182 212.337C98.63 210.743 98.9268 208.99 100.156 207.98C101.137 207.176 102.483 207.047 103.742 207.023C107.867 206.942 112.005 207.624 115.895 209.026C117.125 209.469 118.413 210.053 119.085 211.192C119.814 212.425 119.636 213.979 119.435 215.403L116.311 237.499C118.465 231.1 120.011 224.489 120.922 217.789C121.346 214.663 121.494 211.076 119.352 208.796C116.007 205.237 116.098 200.167 116.191 195.012C116.271 190.563 116.352 186.05 114.227 182.391C113.533 181.197 115.079 179.964 116.365 179.506C122.033 177.485 128.075 176.558 134.077 176.788C135.177 185.637 135.475 194.59 134.965 203.495C134.85 205.492 137.632 206.007 139.585 205.786L207.33 198.138C207.669 198.1 208.036 198.048 208.276 197.802C208.556 197.514 208.57 197.062 208.566 196.657C208.406 180.496 207.95 164.338 207.196 148.194C207.167 147.564 207.088 146.841 206.576 146.486C206.192 146.22 205.686 146.255 205.224 146.301L156.87 151.073C160.047 135.819 163.241 120.279 161.792 104.755C151.222 111.931 137.582 111.877 124.9 111.117C124.373 111.086 123.844 111.054 123.315 111.021C111.11 110.279 98.3824 109.504 87.4101 114.88C93.1552 130.389 98.9662 147.318 94.1906 163.165C93.7681 164.567 93.2654 165.944 92.7629 167.321C91.9882 169.443 91.214 171.564 90.7353 173.772C89.946 177.412 90.0646 181.487 92.1802 184.529C95.2437 188.934 97.6782 193.943 98.2335 199.311C98.7604 204.405 97.583 209.457 96.407 214.503C95.1782 219.776 93.9508 225.042 94.6705 230.344C94.7923 231.24 95.0122 232.205 95.7018 232.777L98.4182 212.337ZM103.211 148.326C104.492 148.372 105.002 150.009 105.165 151.304L106.462 161.555C103.93 160.218 100.367 162.487 100.44 165.391C98.3058 161.197 97.9816 156.39 97.6606 151.632C97.5908 150.597 97.5211 149.564 97.433 148.541C96.4908 137.594 93.2508 127.007 90.0307 116.519C89.5715 115.023 91.5548 114.053 93.0774 113.826C103.069 112.335 113.182 112.54 123.299 112.747C127.885 112.84 132.472 112.933 137.049 112.869C145.181 112.754 153.787 111.97 160.383 107.126C161.866 117.191 159.851 127.345 157.861 137.371C157.592 138.728 157.323 140.082 157.064 141.433C154.886 152.772 153.403 164.858 157.57 175.604C157.746 176.057 157.147 176.399 156.679 176.498C153.252 177.226 149.708 177.383 146.231 176.96C144.74 176.779 143.264 176.493 141.788 176.206C140.677 175.99 139.565 175.775 138.447 175.604C130.026 174.317 121.236 175.653 113.551 179.386C113.243 179.536 112.876 179.466 112.554 179.352C110.997 178.803 109.887 177.339 109.333 175.76C108.779 174.181 108.699 172.476 108.626 170.801L108.316 163.774C108.304 163.521 108.369 163.179 108.618 163.171C122.08 162.743 135.528 161.818 148.925 160.401C148.359 157.173 148.303 153.854 148.76 150.608C149.048 148.56 147.156 146.691 145.141 146.417C143.126 146.143 141.133 147.072 139.461 148.248C138.835 148.688 138.234 149.166 137.633 149.643C136.628 150.442 135.624 151.24 134.506 151.858C133.775 152.263 132.895 152.59 132.127 152.263C131.186 151.863 130.871 150.724 130.59 149.707C130.572 149.643 130.554 149.58 130.537 149.517C130.17 148.208 129.565 146.905 128.5 146.081C127.435 145.258 125.828 145.053 124.777 145.894C123.878 146.614 123.594 147.86 123.443 149.014C123.43 149.116 123.417 149.22 123.404 149.323C123.27 150.384 123.132 151.481 122.511 152.332C121.828 153.265 120.305 153.666 119.556 152.786C118.076 151.046 115.478 150.681 113.297 151.292C111.117 151.902 109.252 153.313 107.443 154.694C106.352 152.955 106.262 150.614 107.216 148.794L107.232 148.764C107.411 148.422 107.617 148.029 107.458 147.681C107.36 147.466 107.144 147.334 106.929 147.24C105.646 146.68 104.007 147.158 103.211 148.326ZM141.759 177.709C142.477 177.855 143.358 178.18 143.403 178.924C143.826 186.013 149.359 192.383 156.162 193.952C162.965 195.521 170.504 192.348 174.47 186.506C178.437 180.664 178.748 172.549 175.495 166.266C172.007 159.529 163.53 155.951 156.383 158.199C156.051 156.71 156.089 155.138 156.491 153.667C156.565 153.394 156.662 153.108 156.879 152.93C157.09 152.756 157.376 152.716 157.646 152.683L177.779 150.214C179.549 149.997 181.324 149.78 183.107 149.765C190.773 149.7 198.433 148.922 205.961 147.443C207.131 163.434 207.681 179.473 207.61 195.509C207.607 196.27 207.379 197.281 206.633 197.303C193.962 197.679 181.391 199.376 168.815 201.074C160.366 202.214 151.915 203.355 143.429 204.096C141.538 204.261 139.634 204.406 137.744 204.223C137.402 204.189 137.015 204.118 136.829 203.824C136.717 203.646 136.704 203.424 136.695 203.212L135.565 177.563C135.551 177.232 135.57 176.832 135.852 176.666C136.039 176.556 136.273 176.595 136.484 176.638L141.759 177.709ZM107.094 171.771C106.894 173.103 106.668 174.602 107.526 175.61C110.723 179.369 114.044 183.386 114.894 188.283C115.291 190.57 115.12 192.924 114.951 195.268C114.737 198.221 114.524 201.158 115.448 203.928C115.472 204 115.497 204.073 115.521 204.145C115.691 204.639 115.864 205.142 115.809 205.658C115.746 206.249 115.242 206.844 114.666 206.743L107.982 205.569C105.769 205.181 103.43 204.802 101.328 205.607C100.921 205.762 100.453 205.489 100.236 205.107C100.018 204.725 99.9891 204.264 99.9702 203.822C99.9474 203.289 99.9302 202.752 99.9131 202.213C99.8051 198.825 99.6951 195.374 98.155 192.406L93.241 182.934C92.5156 181.536 91.7733 180.076 91.7232 178.495C91.6898 177.44 91.9696 176.403 92.247 175.386L94.6985 166.395C95.2146 164.502 95.7606 162.549 96.9828 161.029C99.952 166.158 100.245 172.793 97.7398 178.173C97.508 178.671 98.216 179.183 98.7206 178.985C99.2253 178.786 99.4815 178.223 99.6594 177.703C100.372 175.62 100.622 173.424 100.872 171.224C101.075 169.444 101.277 167.663 101.726 165.937C102 164.88 102.396 163.801 103.198 163.073C104 162.346 105.307 162.097 106.147 162.778C106.79 163.299 106.999 164.19 107.122 165.017C107.444 167.201 107.443 169.433 107.117 171.616C107.109 171.667 107.102 171.719 107.094 171.771ZM118.627 154.021C119.612 154.789 120.577 155.541 121.759 155.402C123.262 155.225 124.198 153.65 124.634 152.175C124.73 151.852 124.815 151.522 124.9 151.191C125.204 150.01 125.51 148.819 126.306 147.93C126.538 147.672 126.871 147.431 127.2 147.532C127.466 147.615 127.621 147.889 127.744 148.143C127.92 148.502 128.085 148.868 128.251 149.234C128.719 150.265 129.187 151.297 129.866 152.193C130.786 153.407 132.217 154.361 133.714 154.194C135.052 154.045 136.098 153.08 137.118 152.139C137.327 151.946 137.534 151.755 137.744 151.571C140.199 149.415 143.396 148.154 146.637 148.063C146.2 149.176 146.492 150.389 146.778 151.579C146.846 151.866 146.915 152.151 146.973 152.434C147.43 154.661 147.199 157.029 146.32 159.121L124.674 160.817C119.621 161.214 114.555 161.61 109.49 161.429C109.17 161.417 108.842 161.402 108.548 161.273C107.992 161.031 107.662 160.427 107.542 159.823C107.274 158.47 107.887 157.061 108.815 156.055C109.743 155.048 110.955 154.37 112.145 153.709C113.384 153.022 114.759 152.311 116.14 152.605C117.06 152.8 117.849 153.415 118.627 154.021ZM159.615 186.125C156.336 186.057 153.495 183.333 152.521 180.144C152.323 179.492 152.736 178.778 153.306 178.421C153.876 178.063 154.566 177.979 155.232 177.903L160.037 177.353C158.575 174.461 157.535 171.35 156.959 168.151C156.907 167.861 156.859 167.556 156.949 167.276C157.107 166.784 157.628 166.525 158.11 166.36C162.014 165.024 166.702 166.645 168.997 170.127C171.293 173.608 170.992 178.64 168.298 181.812C167.131 183.185 165.603 184.198 163.992 184.978C162.619 185.643 161.135 186.157 159.615 186.125ZM175.176 168.938C175.76 170.9 175.928 172.963 176.008 175.011C174.698 174.809 173.375 174.695 172.05 174.668C171.791 171.223 169.539 168.111 166.578 166.422C163.618 164.734 160.044 164.369 156.699 164.947C156.67 164.461 156.583 163.955 156.496 163.448C156.267 162.111 156.037 160.774 156.887 159.824C157.4 159.251 158.181 159.022 158.93 158.88C162.341 158.233 165.977 158.911 168.942 160.746C171.906 162.581 174.171 165.557 175.176 168.938ZM151.126 179.796C151.121 179.86 151.115 179.922 151.113 179.982C151.09 180.458 151.308 180.895 151.524 181.327C151.582 181.443 151.64 181.558 151.692 181.674C151.942 182.222 152.063 182.944 151.646 183.374C150.635 184.413 149.742 185.57 148.989 186.815C148.803 187.123 148.345 187.149 148.039 186.965C147.733 186.781 147.543 186.454 147.367 186.14C146.248 184.155 145.102 182.078 144.963 179.793C144.945 179.509 144.976 179.166 145.223 179.033C145.332 178.975 145.461 178.973 145.584 178.973L150.586 178.957C150.705 178.957 150.831 178.958 150.935 179.018C151.18 179.16 151.152 179.49 151.126 179.796Z" fill="#00160A"/>
</svg>
