<svg width="750" height="750" viewBox="0 0 750 750" fill="none" xmlns="http://www.w3.org/2000/svg">
<path fill-rule="evenodd" clip-rule="evenodd" d="M597.177 207.491C500.256 151.873 424.687 315.131 369.799 335.683C259.179 377.103 53.7133 413.128 92.8977 493.654C146.701 604.223 333.905 615.255 467.778 604.223C641.906 589.873 787.732 316.84 597.177 207.491Z" fill="#64FCD9"/>
<path fill-rule="evenodd" clip-rule="evenodd" d="M583.225 397.7C584.224 398.581 584.564 399.96 584.813 401.28L586.332 409.565C586.543 410.717 587.51 411.262 587.882 410.606C588.276 409.912 589.328 410.2 590.033 410.575L598.835 415.259C595.84 417.408 592.307 418.801 588.652 419.273C586.849 419.505 586.558 421.974 586.75 423.781L587.271 428.697C587.433 430.228 585.024 430.749 583.82 429.788C582.616 428.827 582.159 427.218 581.211 426.004C579.679 424.044 576.97 423.313 574.493 423.54C572.015 423.767 569.694 424.806 567.427 425.83C565.965 426.491 564.357 424.741 564.471 423.141C564.572 421.729 565.475 420.545 566.396 419.444L566.763 419.007C567.796 417.78 568.83 416.326 568.655 414.731C568.51 413.403 567.562 412.334 566.611 411.379L566.054 410.82C565.172 409.919 564.335 408.917 564.181 407.685C564.004 406.277 565.29 404.655 566.64 405.092C571.842 406.773 578.105 403.495 579.688 398.263C580.099 396.903 582.16 396.76 583.225 397.7Z" fill="white"/>
<path fill-rule="evenodd" clip-rule="evenodd" d="M583.225 397.7C584.224 398.581 584.564 399.96 584.813 401.28L586.332 409.565C586.543 410.717 586.079 412.5 584.98 412.097C583.414 408.776 582.58 405.112 582.556 401.441C581.959 400.867 581.07 401.721 580.698 402.461L576.984 409.861C576.33 411.164 574.378 410.876 573.089 410.195L572.398 409.83C571.28 409.25 570.063 408.736 569.003 409.308C568.462 410.928 570.867 411.736 572.115 412.903C573.54 414.234 573.456 416.626 572.46 418.303C571.463 419.979 569.779 421.11 568.151 422.183C570.491 422.569 572.986 421.885 574.802 420.361C575.622 419.672 576.374 418.788 577.422 418.569C579.045 418.23 580.502 419.636 581.344 421.064C582.186 422.491 582.853 424.162 584.291 424.986C585.012 423.851 584.627 422.427 584.173 421.115L583.957 420.503C583.437 419.037 583.203 417.094 584.479 416.204C584.959 415.869 585.555 415.771 586.142 415.707L592.419 415.079L588.803 412.444C588.194 412 587.51 411.262 587.882 410.606C588.276 409.912 589.328 410.2 590.033 410.575L598.835 415.259C595.84 417.408 592.307 418.801 588.652 419.273C586.849 419.505 586.558 421.974 586.75 423.781L587.271 428.697C587.433 430.228 585.024 430.749 583.82 429.788C582.616 428.827 582.159 427.218 581.211 426.004C579.679 424.044 576.97 423.313 574.493 423.54C572.015 423.767 569.694 424.806 567.427 425.83C565.965 426.491 564.357 424.741 564.471 423.141C564.572 421.729 565.475 420.545 566.396 419.444L566.763 419.007C567.796 417.78 568.83 416.326 568.655 414.731C568.51 413.403 567.562 412.334 566.611 411.379L566.054 410.82C565.172 409.919 564.335 408.917 564.181 407.685C564.004 406.277 565.29 404.655 566.64 405.092C571.842 406.773 578.105 403.495 579.688 398.263C580.099 396.903 582.16 396.76 583.225 397.7Z" fill="#FFB61D"/>
<path fill-rule="evenodd" clip-rule="evenodd" d="M236.927 249.128C233.16 232.389 243.422 204.605 261.756 193.433C280.09 182.262 303.541 181.496 323.96 188.13C323.309 168.405 343.312 151.479 362.981 153.109C382.649 154.738 398.969 172.397 401.611 191.955C403.67 207.194 395.847 225.346 380.719 228.107C386.067 247.213 389.04 267.315 386.105 286.937C383.17 306.559 373.832 325.727 358.073 337.781C353.722 343.633 357.008 352.462 362.736 356.975C368.464 361.489 375.877 363.076 382.731 365.567C411.449 376.004 431.669 404.337 436.382 434.528C441.095 464.718 431.681 496.029 414.668 521.411C403.016 538.796 387.164 554.236 367.331 560.922C339.494 570.307 308.972 561.169 281.941 549.666C271.637 545.281 261.144 540.298 253.87 531.783C246.073 522.655 231.335 527.585 220.708 533.168C227.774 536.1 234.841 539.032 241.907 541.964C243.426 542.594 245.073 543.343 245.777 544.828C247.26 547.955 243.608 550.964 240.517 552.521C237.196 554.193 233.875 555.866 230.553 557.538C210.167 567.804 188.934 578.293 166.117 578.927C141.172 579.62 117.608 568.471 95.1568 557.574C92.6613 556.363 90.0161 555.014 88.6592 552.595C87.3024 550.176 88.0608 546.403 90.7425 545.694C115.928 539.033 139.774 527.343 160.464 511.513C158.881 501.658 159.254 491.493 161.555 481.781C161.888 480.377 162.367 478.836 163.618 478.117C166.696 476.349 169.369 481.007 169.913 484.514C171.286 493.368 172.658 502.221 174.031 511.074C190.513 509.251 206.509 503.197 220.067 493.65C209.492 485.134 198.917 476.617 188.342 468.101C182.241 463.187 176.351 460.248 173.056 450.626C170.859 444.211 172.632 437.622 178.375 430.857C171.964 398.907 169.159 374.822 169.959 358.603C170.173 354.274 170.658 349.6 173.572 346.391C178.715 340.727 188.815 343.17 193.51 349.211C198.205 355.253 198.991 363.36 199.598 370.987C217.475 368.803 235.352 366.619 253.229 364.435C259.769 363.636 266.542 362.855 272.837 364.802C280.735 367.244 287.078 374.161 288.829 382.24C296.372 380.201 304.589 377.69 308.849 371.139C313.109 364.589 309.501 353.195 301.694 353.533C277.273 354.589 253.39 336.468 247.832 312.665C246.418 306.611 245.869 299.884 241.619 295.347C234.885 288.157 229.753 278.888 229.786 269.037C229.819 259.186 233.946 258.011 236.927 249.128ZM91.1553 552.293C91.7051 553.115 92.6648 553.545 93.5737 553.934C102.899 557.925 112.225 561.916 121.55 565.907C125.793 567.723 130.05 569.544 134.488 570.813C146.863 574.354 160.198 573.491 172.503 577.271C173.995 577.729 175.597 577.256 177.083 576.777C187.815 573.32 198.42 569.472 208.871 565.242C219.805 560.816 230.64 555.934 240.348 549.234C241.231 548.624 242.148 547.947 242.551 546.952C242.954 545.958 242.582 544.575 241.55 544.282C234.999 542.421 228.542 540.226 222.214 537.708C220.179 536.899 217.889 535.745 217.458 533.599C211.883 533.823 207.007 537.339 202.895 541.11C198.783 544.881 194.92 549.139 189.853 551.475C184.787 553.811 177.986 553.61 174.476 549.273C174.101 548.809 173.724 548.277 173.148 548.126C172.571 547.975 171.831 548.549 172.1 549.081C172.796 550.459 171.301 552.201 169.76 552.105C168.22 552.009 167.015 550.606 166.636 549.11C166.257 547.614 164.199 550.287 161.215 550.732C158.232 551.176 155.068 549.262 154.077 546.413C153.26 544.066 150.058 544.024 147.612 543.585C142.049 542.586 137.824 536.757 138.607 531.159C122.619 536.491 106.922 542.692 91.6067 549.725C90.7082 550.138 90.6054 551.472 91.1553 552.293Z" fill="white"/>
<path d="M315.602 322C320.297 322 324.102 318.194 324.102 313.5C324.102 308.806 320.297 305 315.602 305C310.908 305 307.102 308.806 307.102 313.5C307.102 318.194 310.908 322 315.602 322Z" fill="#FFB61D"/>
<path d="M256.602 315C259.088 315 261.102 312.985 261.102 310.5C261.102 308.015 259.088 306 256.602 306C254.117 306 252.102 308.015 252.102 310.5C252.102 312.985 254.117 315 256.602 315Z" fill="#FFB61D"/>
<path fill-rule="evenodd" clip-rule="evenodd" d="M356.194 347.614C356.973 351.655 359.286 355.569 362.367 357.996C368.095 362.51 380.969 367.157 387.823 369.648C388.447 369.875 384.93 371.861 380.391 376.253C368.1 388.142 341.228 409.433 314.974 398.733C311.906 397.483 309.34 396.043 307.25 394.517C305.324 393.111 323 395.137 339.524 392.004C356.138 388.854 371.595 380.532 367.458 373.935C363.569 367.733 352.631 357.23 351.778 351.052C350.642 342.821 355.524 344.142 356.194 347.614Z" fill="#E7EAEE"/>
<path fill-rule="evenodd" clip-rule="evenodd" d="M90.8179 549.955C90.8179 546.658 101.215 543.99 118.988 537.304C131.213 532.706 155.041 519.401 166.764 518.781C174.565 518.369 205.74 529.781 226.085 537.978C236.315 542.1 244.206 544.681 244.206 546.004C244.206 548.659 222.485 561.481 200.285 569.908C189.449 574.022 179.283 577.706 169.959 577.457C141.534 576.698 90.8179 558.303 90.8179 549.955Z" fill="white"/>
<path fill-rule="evenodd" clip-rule="evenodd" d="M492.384 276.093C451.623 293.503 417.572 323.25 385.128 353.501L383.144 355.354C381.251 357.123 378.378 358.972 376.336 357.378L382.64 351.639C415.626 321.67 449.731 291.953 490.544 274.297C521.923 260.722 521.59 263.62 492.384 276.093ZM316.81 566.077L335.931 586.905C336.868 587.925 337.843 589.021 338.106 590.381C338.368 591.742 337.579 593.403 336.201 593.547L296.833 597.664C290.293 598.348 283.625 593.814 281.742 587.514C279.859 581.215 282.873 573.836 288.568 570.551C294.263 567.266 302.075 568.302 306.803 572.871C307.974 574.003 310.03 573.041 310.862 571.641C311.693 570.241 311.873 568.523 312.732 567.14C313.591 565.756 315.708 564.877 316.81 566.077ZM285.062 578.099C282.621 582.732 284.164 589.008 288.343 592.165C290.391 593.711 292.905 594.541 295.438 594.95C299.017 595.527 303.168 595.09 305.469 592.289C306.309 591.266 306.823 590.013 307.175 588.737C308.344 584.491 307.749 579.787 305.56 575.965C304.964 574.925 304.048 573.839 302.85 573.891C302.281 573.915 301.752 574.203 301.186 574.262C300.242 574.359 299.369 573.82 298.51 573.42C293.762 571.209 287.503 573.466 285.062 578.099ZM315.111 570.255C314.359 573.389 312.804 576.328 310.634 578.711C310.023 579.383 310.173 580.42 310.297 581.319C310.9 585.699 309.903 590.281 307.534 594.014C311.415 593.095 315.384 592.546 319.37 592.376C324.832 592.144 330.532 592.582 335.538 590.384C332.864 589.22 330.593 587.15 329.188 584.593C328.362 583.089 327.22 581.788 326.086 580.501L317.38 570.607C316.751 569.892 315.333 569.329 315.111 570.255ZM216.24 570.067C217.488 573.965 222.184 575.302 226.252 576.004L253.4 580.537C259.677 581.585 266.12 582.632 272.362 581.394C273.54 581.16 274.163 583.031 273.386 583.946C272.609 584.861 271.257 584.97 270.056 584.974C264.617 584.992 259.211 584.269 253.828 583.46L248.094 582.586C237.947 581.027 227.804 579.366 217.872 576.782C216.172 576.339 214.411 575.834 213.109 574.653C211.808 573.473 211.131 571.412 212.047 569.913C212.963 568.414 215.704 568.394 216.24 570.067ZM362.981 153.109C382.649 154.738 398.969 172.397 401.611 191.955C403.67 207.194 395.847 225.346 380.719 228.107C386.067 247.213 389.04 267.315 386.105 286.937C383.17 306.559 373.832 325.727 358.073 337.781C353.722 343.633 357.008 352.462 362.736 356.975C368.464 361.489 375.877 363.076 382.731 365.567C411.449 376.004 431.669 404.337 436.382 434.528C441.095 464.718 431.681 496.029 414.668 521.411C403.016 538.796 387.164 554.236 367.331 560.922C339.772 570.213 309.583 561.35 282.753 550.01L281.941 549.666C271.852 545.372 261.581 540.505 254.329 532.311L253.87 531.783C246.073 522.655 231.335 527.585 220.708 533.168L241.907 541.964C243.426 542.594 245.073 543.343 245.777 544.828C247.26 547.955 243.608 550.964 240.517 552.521L228.07 558.787C208.442 568.639 188.009 578.319 166.117 578.927C141.462 579.612 118.156 568.728 95.9404 557.954L94.5306 557.268C92.2294 556.131 89.903 554.813 88.6592 552.595C87.3024 550.176 88.0608 546.403 90.7425 545.694C115.928 539.033 139.774 527.343 160.464 511.513C158.881 501.658 159.254 491.493 161.555 481.781L161.672 481.309C162.004 480.044 162.506 478.757 163.618 478.117C166.696 476.349 169.369 481.007 169.913 484.514L174.031 511.074C190.513 509.251 206.509 503.197 220.067 493.65L187.49 467.413C181.657 462.694 175.751 457.592 173.056 450.626C170.228 443.319 172.503 433.415 179.809 430.588C180.386 402.911 178.927 375.192 175.448 347.729C170.638 375.158 174.504 403.28 178.375 430.857C171.738 407.882 168.863 383.823 169.898 359.93L169.959 358.603C170.173 354.274 170.658 349.6 173.572 346.391C178.715 340.727 188.815 343.17 193.51 349.211C198.205 355.253 198.991 363.36 199.598 370.987L254.458 364.286C260.614 363.549 266.936 362.977 272.837 364.802C280.735 367.244 287.078 374.161 288.829 382.24L290.115 381.889C297.29 379.904 304.83 377.319 308.849 371.139C313.064 364.658 309.576 353.437 301.941 353.526L301.694 353.533C277.273 354.589 253.39 336.468 247.832 312.665C246.418 306.611 245.869 299.884 241.619 295.347C234.885 288.157 229.753 278.888 229.786 269.037C229.819 259.186 236.101 249.027 245.666 246.672C255.232 244.317 266.552 252.298 265.727 262.114C270.368 261.642 275.115 262.246 279.489 263.865C276.995 257.139 283.461 249.715 290.568 248.739C297.675 247.763 304.6 251.313 310.511 255.379C316.421 259.445 322.068 264.232 328.94 266.292L329.256 265.559C330.676 262.244 331.984 258.703 331.269 255.197C330.5 251.433 326.258 248.177 322.824 249.901C320.414 242.994 316.578 236.588 311.627 231.202L297.869 237.688C296.096 235.033 295.011 231.924 294.745 228.743C285.661 233.934 275.801 237.766 265.595 240.07L266.64 232.278L236.141 248.119C231.637 227.127 243.422 204.605 261.756 193.433C280.09 182.262 303.541 181.496 323.96 188.13C323.309 168.405 343.312 151.479 362.981 153.109ZM513.024 495.25C495.453 499.49 478.397 505.857 462.345 514.166L461.184 514.772C452.29 519.458 443.56 525.073 437.984 533.404C441.749 532.752 445.769 533.733 448.809 536.047C450.73 537.509 452.334 539.701 452.22 542.111C452.16 543.361 451.642 544.553 450.942 545.59C448.207 549.642 442.416 551.288 437.959 549.279C433.502 547.271 430.899 541.843 432.123 537.11C413.214 543.565 396.959 557.455 387.614 575.113L387.302 575.709C386.841 576.598 386.279 577.593 385.302 577.814C383.959 578.118 382.764 576.619 382.826 575.244C382.887 573.869 383.768 572.684 384.62 571.603C395.639 557.611 408.516 544.293 424.995 537.54L426.236 537.041C430.124 535.499 434.193 533.985 436.704 530.696C442.793 522.719 451.559 517.244 460.46 512.609C468.426 508.461 476.667 504.841 485.11 501.778C493.583 498.705 502.247 496.198 510.928 493.769L540.339 485.58C532.384 491.171 522.475 492.97 513.024 495.25ZM138.607 531.159C122.619 536.491 106.922 542.692 91.6067 549.725C90.7082 550.138 90.6054 551.472 91.1553 552.293C91.7051 553.115 92.6648 553.545 93.5737 553.934L121.55 565.907C125.793 567.723 130.05 569.544 134.488 570.813C146.863 574.354 160.198 573.491 172.503 577.271C173.995 577.729 175.597 577.256 177.083 576.777C187.815 573.32 198.42 569.472 208.871 565.242C219.805 560.816 230.64 555.934 240.348 549.234C241.231 548.624 242.148 547.947 242.551 546.952C242.954 545.958 242.582 544.575 241.55 544.282C234.999 542.421 228.542 540.226 222.214 537.708L221.775 537.529C219.862 536.729 217.858 535.592 217.458 533.599C211.883 533.823 207.007 537.339 202.895 541.11C198.783 544.881 194.92 549.139 189.853 551.475C184.787 553.811 177.986 553.61 174.476 549.273L174.249 548.99C173.942 548.612 173.609 548.246 173.148 548.126C172.571 547.975 171.831 548.549 172.1 549.081C172.796 550.459 171.301 552.201 169.76 552.105C168.22 552.009 167.015 550.606 166.636 549.11C166.392 548.148 166.414 547.154 166.53 546.162L166.56 545.918C165.875 548.344 163.728 550.357 161.215 550.732C158.232 551.176 155.068 549.262 154.077 546.413C153.26 544.066 150.058 544.024 147.612 543.585C142.049 542.586 137.824 536.757 138.607 531.159ZM176.389 437.731C173.093 443.593 176.154 451.011 180.213 456.373C192.942 473.186 214.262 481.255 228.809 496.522C232.464 500.358 235.65 504.608 238.795 508.875L248.681 522.301C250.498 524.769 252.322 527.244 254.442 529.457C259.97 535.226 267.25 538.948 274.45 542.413C289.059 549.442 304.087 555.902 319.949 559.257C335.81 562.613 352.663 562.727 367.924 557.255C382.207 552.134 394.515 542.311 404.077 530.529C413.412 519.028 420.264 505.696 425.756 491.933L426.155 490.925C426.945 488.918 427.722 486.818 427.558 484.667C427.384 482.392 426.172 480.324 424.758 478.534C419.365 471.711 410.351 467.852 401.719 468.918C393.222 469.968 385.441 475.864 382.329 483.831L382.184 484.212C375.42 502.549 358.576 516.34 339.654 521.234C320.732 526.127 300.151 522.621 282.879 513.473C265.608 504.324 251.514 489.843 241.007 473.363L240.433 472.454C238.535 469.407 236.809 466.201 236.141 462.686C235.405 458.819 236.153 454.47 238.945 451.697C240.79 449.864 243.415 448.789 244.756 446.562C246.098 444.335 244.523 440.402 242.047 441.197L240.396 441.72C229.02 445.259 215.822 448.005 206.67 440.64L205.79 439.936C201.52 436.543 196.957 433.304 191.652 432.137C185.981 430.889 179.234 432.669 176.389 437.731ZM221.736 497.154C207.938 505.872 192.365 511.77 176.254 514.38C174.126 514.725 173.555 517.483 173.521 519.637C173.415 526.485 173.747 533.34 174.513 540.146C176.259 539.324 176.973 537.271 178.162 535.753C179.352 534.235 182.068 533.403 182.987 535.099C183.63 536.283 182.772 537.766 181.677 538.552C180.583 539.337 179.236 539.763 178.26 540.691C175.831 543.001 177.1 547.545 180.06 549.119C183.019 550.694 186.763 549.872 189.6 548.087C192.437 546.301 194.63 543.684 197.035 541.35C202.181 536.357 208.475 532.555 215.288 530.323C223.937 527.49 233.569 527.069 241.179 522.075C241.691 521.739 242.222 521.344 242.415 520.762C242.679 519.968 242.232 519.143 241.758 518.436L232.654 505.216C231.203 503.11 229.534 500.848 227.049 500.245C225.913 499.97 224.702 500.076 223.587 499.724C222.472 499.373 221.422 498.28 221.736 497.154ZM158.171 516.358C154.621 518.015 152.52 521.912 152.053 525.802C151.585 529.692 152.503 533.608 153.594 537.371C154.263 539.68 155.005 541.983 156.112 544.118C156.818 545.479 157.753 546.837 159.167 547.429C160.582 548.021 162.545 547.489 163.005 546.026C163.194 545.423 163.11 544.772 163 544.15C162.588 541.812 161.849 539.532 160.811 537.396L160.376 536.531C159.752 535.282 159.164 533.81 159.967 532.72C160.733 531.679 162.616 531.249 162.436 529.97L160.678 517.473C160.626 517.108 160.566 516.722 160.329 516.44C159.829 515.846 158.874 516.03 158.171 516.358ZM439.606 535.633C438.434 535.628 437.201 535.79 436.26 536.488C435.709 536.897 435.293 537.469 435 538.089C433.763 540.712 434.904 544.083 437.248 545.791C439.592 547.499 442.84 547.659 445.553 546.636C447.628 545.853 449.624 544.081 449.555 541.865C449.5 540.116 448.172 538.656 446.708 537.698C444.617 536.329 442.106 535.644 439.606 535.633ZM164.831 480.945C164.531 481.168 164.383 481.536 164.256 481.888C162.41 487.009 162.184 492.561 162.235 498.005C162.363 511.654 164.116 525.288 167.447 538.525L167.612 539.169C168.293 541.754 169.224 544.405 171.332 546.004C171.724 525.026 170.363 504.017 167.268 483.265C167.067 481.919 165.924 480.132 164.831 480.945ZM148.208 526.034C147.767 526.157 147.484 526.577 147.264 526.979C145.464 530.263 145.343 534.413 146.948 537.798C147.667 539.315 148.901 540.79 150.57 540.976C151.25 540.129 150.939 538.908 150.558 537.871L150.229 536.992C149.004 533.672 147.998 530.078 149.078 526.74C149.219 526.305 148.649 525.91 148.208 526.034ZM142.203 530.584C140.941 533.39 141.503 536.922 143.575 539.197C144.43 538.323 144.054 536.891 143.762 535.703C143.305 533.845 143.201 531.9 143.459 530.003C143.141 529.536 142.435 530.068 142.203 530.584ZM168.81 430.558C170.724 432.206 171.94 435.763 169.668 436.865C168.212 437.571 166.562 436.539 165.187 435.686C158.043 431.253 148.909 430.926 140.81 433.181C132.71 435.436 125.47 440.03 118.674 444.979C111.906 449.908 105.381 455.317 100.292 461.965C95.2033 468.614 91.6039 476.625 91.3085 484.992C90.9546 495.018 95.2861 504.603 100.295 513.296C103.487 518.836 107.087 524.298 112.043 528.321L113.061 529.126C114.467 530.255 115.91 531.654 115.552 533.352C110.695 533.132 107.169 528.787 104.494 524.726C100.691 518.953 97.2232 512.957 94.1159 506.781C91.5321 501.645 89.1704 496.294 88.3854 490.599C86.9091 479.888 91.2577 468.997 98.0169 460.558C104.776 452.119 113.771 445.785 122.87 439.943C129.78 435.506 136.893 431.25 144.65 428.554C152.651 425.773 162.393 425.031 168.81 430.558ZM374.126 383.382C362.621 394.121 347.329 400.717 331.624 401.717C324.682 402.158 317.515 401.495 311.234 398.506C304.953 395.518 299.663 389.946 298.203 383.146L297.682 383.307C293.136 384.745 287.931 387.348 287.977 392.033C288.171 411.902 287.708 431.778 286.59 451.617C286.376 455.424 284.926 460.421 281.115 460.309C267.574 459.911 253.945 463.038 241.931 469.298C255.453 490.504 274.683 509.044 298.604 516.811C322.525 524.579 351.375 519.725 368.137 500.975C373.51 494.965 377.465 487.86 381.273 480.742L382.15 479.099C382.96 477.581 383.784 475.777 383.064 474.214C382.604 473.216 383.595 472.179 384.505 471.563C397.881 462.51 417.797 464.966 428.573 476.998C427.719 475.328 428.495 473.027 430.186 472.215C431.53 474.374 431.814 477.16 430.935 479.547C431.517 480.371 432.585 479.046 432.678 478.041C434.114 462.4 434.002 446.618 432.341 431C431.743 425.368 430.93 419.702 428.915 414.409C427.147 409.767 424.492 405.513 421.582 401.488C414.888 392.229 406.749 384.015 397.551 377.236L396.883 376.75C395.425 375.706 393.89 374.744 392.167 374.275C385.346 372.418 379.294 378.559 374.126 383.382ZM281.19 374.385C273.585 376.944 265.35 376.452 257.344 377.005C246.064 377.785 234.935 380.719 224.736 385.602C220.343 387.705 216.094 390.177 211.448 391.639C201.582 394.746 190.272 392.828 181.983 386.641C180.196 400.284 180.723 414.227 183.535 427.696C183.716 428.561 184.285 429.668 185.13 429.408C190.737 427.686 196.767 430.122 201.751 433.212C206.736 436.302 211.421 440.155 217.083 441.684C223.725 443.478 230.764 441.82 237.339 439.736L237.831 439.579C241.201 438.497 245.56 437.595 247.721 440.398C249.543 442.762 248.393 446.294 246.463 448.572C244.533 450.849 241.916 452.543 240.342 455.079C238.409 458.194 238.399 462.4 240.317 465.524C252.873 460.488 266.312 457.663 279.833 457.217C282.544 457.128 283.495 453.619 283.662 450.911C285.122 427.183 285.57 403.394 285.005 379.628C284.945 377.095 283.591 373.577 281.19 374.385ZM484.475 438.547L485.013 438.817C488.342 440.509 491.886 442.764 492.382 446.41C492.545 447.61 492.34 448.831 492.054 450.008C491.659 451.639 491.057 453.312 489.79 454.411C488.446 455.576 486.558 455.907 484.781 455.838C481.281 455.702 477.778 454.072 475.751 451.215C473.724 448.359 473.397 444.274 475.289 441.326C477.18 438.378 481.337 436.992 484.475 438.547ZM479.284 442.626C477.21 443.492 476.463 446.297 477.328 448.372C478.194 450.446 480.251 451.811 482.387 452.511C484.572 453.226 487.386 453.168 488.688 451.273C489.122 450.642 489.327 449.882 489.447 449.127C489.707 447.481 489.549 445.659 488.489 444.373C487.176 442.781 484.935 442.461 482.841 442.342L482.321 442.316C481.296 442.271 480.231 442.231 479.284 442.626ZM217.39 399.74C217.652 400.735 217.45 401.787 217.271 402.801C216.008 409.943 215.917 417.292 216.999 424.464L217.199 425.734C217.331 426.632 217.385 427.579 216.869 428.302C216.274 429.136 214.606 429.052 214.522 428.031C213.812 419.341 213.357 410.63 213.158 401.913C213.12 400.248 213.554 398.033 215.215 397.906C216.242 397.826 217.127 398.744 217.39 399.74ZM158.952 382.325C160.18 382.695 161.36 383.536 161.716 384.768C162.072 386 161.262 387.557 159.982 387.638C158.789 387.713 157.879 386.626 156.783 386.15C154.815 385.294 152.607 386.489 150.798 387.643L149.877 388.238C148.141 389.381 146.458 390.665 145.505 392.488C144.529 394.354 144.447 396.547 144.478 398.652C144.499 400.115 144.567 401.6 145.02 402.991C146.001 406.011 148.802 408.273 151.909 408.928C155.016 409.583 158.339 408.734 160.967 406.953L161.482 406.603C161.946 406.297 162.432 406.031 162.978 406.004C163.729 405.968 164.55 406.676 164.295 407.383C164.219 407.595 164.062 407.766 163.904 407.928C159.609 412.341 152.19 413.286 146.926 410.09C145.986 409.52 145.111 408.832 144.401 407.993C142.268 405.473 141.87 401.94 141.811 398.638C141.779 396.852 141.823 395.038 142.331 393.325C143.428 389.623 146.529 386.873 149.752 384.746C152.489 382.941 155.813 381.381 158.952 382.325ZM134.098 374.73L144.808 387.448C144.218 388.086 143.186 388.127 142.39 387.781C141.682 387.474 141.118 386.924 140.586 386.359L134.302 379.6C133.446 386.46 131.37 393.165 128.202 399.309C127.894 399.907 128.767 400.412 129.437 400.481C131.071 400.648 132.724 400.462 134.336 400.142L135.166 399.975C136.468 399.716 137.802 399.513 139.016 399.994C140.489 400.578 141.398 402.722 140.217 403.778C139.489 404.429 138.385 404.348 137.416 404.228L126.985 402.938L126.665 402.892C125.635 402.724 124.503 402.32 124.352 401.328C124.262 400.73 124.594 400.158 124.905 399.639C128.617 393.443 131.091 386.508 132.141 379.362L132.299 378.229C132.503 376.838 132.864 375.328 134.098 374.73ZM498.984 394.712C500.277 395.627 501.496 397.422 500.495 398.648C499.868 399.416 498.661 399.435 497.76 399.022C496.859 398.609 496.159 397.869 495.382 397.254C492.195 394.735 487.409 394.47 483.963 396.621C483.472 396.927 482.984 397.308 482.785 397.851C482.586 398.394 482.806 399.123 483.361 399.287C487.759 397.424 493.003 397.684 497.195 399.975C497.801 400.306 498.438 400.746 498.587 401.42C498.736 402.095 498.012 402.903 497.409 402.566C494.674 401.035 491.409 400.471 488.318 400.997C486.877 401.242 485.468 401.716 484.007 401.762C482.546 401.808 480.949 401.321 480.173 400.082C479.458 398.939 479.628 397.396 480.325 396.242C481.023 395.088 482.167 394.27 483.363 393.648C488.233 391.114 494.503 391.541 498.984 394.712ZM353.07 332.879C342.627 341.658 330.355 348.25 317.272 352.115L316.398 352.369C314.7 352.854 312.562 353.929 312.92 355.659L313.14 356.733C313.792 359.96 314.346 363.247 313.88 366.495C313.378 369.997 311.447 373.503 308.252 374.975L307.958 375.103C302.269 377.445 301.469 385.944 305.2 390.836C308.931 395.729 315.401 397.623 321.513 398.33C339.452 400.405 358.171 394.39 371.544 382.256C376.394 377.855 380.734 372.586 386.739 369.972L371.722 364.475C367.671 362.992 363.567 361.482 360.04 358.996C356.514 356.511 353.574 352.893 352.853 348.64C351.97 343.43 354.468 337.976 353.07 332.879ZM179.841 346.966C179.464 347.133 179.079 347.356 178.898 347.726C178.716 348.097 178.778 348.535 178.842 348.943L182.282 370.632C183.296 377.023 184.721 384.106 189.992 387.86C195.766 391.972 203.696 390.361 210.42 388.013L210.779 387.887C223.296 383.441 235.342 377.253 248.46 375.171C257.879 373.676 267.756 374.316 276.662 370.906C273.404 365.989 266.347 366.015 260.443 366.66L212.211 372.142C208.474 372.567 204.549 373.062 201.515 375.283C200.187 376.255 198.93 377.591 197.286 377.659C195.686 377.725 194.296 375.395 195.55 374.538L195.66 374.47C197.035 373.714 196.942 371.74 196.661 370.196L195.202 362.198C194.465 358.23 193.564 354.192 191.19 350.953C188.627 347.455 183.804 345.204 179.841 346.966ZM512.819 379.382C513.981 380.737 514.031 382.815 513.256 384.423C512.481 386.03 511.013 387.213 509.425 388.027C507.509 389.011 505.399 389.523 503.284 389.961L502.227 390.176C501.813 390.259 501.376 390.341 500.976 390.208C500.642 390.097 500.372 389.847 500.154 389.572C499.063 388.204 499.102 386.186 499.839 384.6C500.577 383.014 501.898 381.781 503.255 380.678C504.642 379.55 506.151 378.487 507.891 378.074C509.63 377.662 511.654 378.026 512.819 379.382ZM507.116 381.762L506.559 382.137C505.727 382.707 504.924 383.33 504.365 384.161C503.681 385.178 503.443 386.596 504.118 387.618L508.592 385.129C509.321 384.723 510.076 384.294 510.549 383.608C511.022 382.921 511.116 381.896 510.531 381.301C509.654 380.408 508.158 381.069 507.116 381.762ZM435.752 332.801C436.064 332.927 436.275 333.21 436.457 333.499L443.012 344.204C444.183 346.117 446.848 346.33 449.085 346.173C453.374 345.871 457.621 344.995 461.68 343.577C462.36 343.34 463.006 344.206 462.859 344.912C462.713 345.618 462.106 346.121 461.537 346.564L451.693 354.237C450.484 354.152 450.827 352.173 451.808 351.46L452.098 351.258C453.043 350.621 454.189 349.991 454.129 348.896L448.44 350.673C447.354 351.013 446.147 351.346 445.113 350.869C444.427 350.552 443.946 349.93 443.511 349.304L436.283 338.755L436.159 347.993C436.148 348.75 436.116 349.572 435.635 350.157C435.293 350.573 434.783 350.796 434.273 350.984L424.301 354.562C426.964 357.225 431.949 354.423 435.136 356.43C437.319 357.805 437.692 360.869 437.221 363.406C436.75 365.942 435.67 368.411 435.81 370.987C437.63 369.667 438.966 367.695 439.519 365.516C439.742 364.637 439.851 363.703 440.34 362.939C441.687 360.836 444.905 361.264 447.136 362.389C449.366 363.514 451.68 365.134 454.12 364.599L450.58 358.939C450.257 358.422 449.922 357.863 449.951 357.255C449.979 356.646 450.557 356.031 451.14 356.208C451.396 356.285 451.586 356.487 451.755 356.699L459.652 366.936C456.879 368.765 453.219 367.613 450.016 366.73L449.541 366.606C446.417 365.833 442.603 365.756 440.878 368.404C439.662 370.27 438.235 371.998 436.633 373.546C435.958 374.198 435.189 374.847 434.256 374.954C433.324 375.061 432.253 374.354 432.336 373.419L433.254 363.067C433.313 362.397 433.358 361.667 432.985 361.108C432.591 360.518 431.85 360.289 431.167 360.1L422.539 357.717C420.663 357.199 420.649 354.279 422.056 352.935C423.464 351.591 425.536 351.309 427.411 350.789C429.286 350.269 431.314 349.165 431.653 347.248L433.842 334.846C434.03 333.785 434.754 332.396 435.752 332.801ZM203.619 157.94L202.026 159.235C191.409 167.886 180.948 176.957 173.161 188.203C164.986 200.012 159.966 214.656 162.4 228.811C165.947 249.438 184.398 265.866 185.187 286.782C185.292 289.56 188.121 291.289 190.488 292.748C199.829 298.504 206.751 307.641 211.319 317.618C215.744 327.283 218.106 337.755 219.824 348.251L219.988 349.267C220.244 350.867 220.431 352.689 219.399 353.938C218.366 355.188 215.711 354.75 215.814 353.133C217.026 334.116 210.115 314.715 197.153 300.747C193.785 297.119 189.874 293.756 185.132 292.335C184.83 299.66 182.364 307.124 177.143 312.271C171.922 317.418 163.686 319.769 156.927 316.929C150.169 314.089 146.034 305.513 149.076 298.843C151.624 293.255 157.952 290.432 163.977 289.242C169.889 288.075 176.017 288.014 181.951 289.064C182.749 289.205 183.097 288.089 183.081 287.278C182.652 265.538 162.556 248.517 159.918 226.933C158.477 215.138 162.501 203.264 168.342 192.915C176.012 179.324 186.924 167.577 199.913 158.927L200.253 158.706C201.293 158.051 202.506 157.493 203.619 157.94ZM269.787 268.668C266.879 270.538 266.954 274.689 266.713 278.139C266.383 282.87 264.756 287.605 261.584 291.131C258.411 294.656 253.591 296.822 248.886 296.23C247.668 296.077 247.298 297.839 247.458 299.055C250.193 319.907 262.842 340.378 282.502 347.844C294.521 352.409 308.098 351.802 320.351 347.912C332.314 344.114 343.14 337.359 353.035 329.627L353.758 329.06C355.192 327.926 356.635 326.746 357.632 325.213C358.643 323.659 359.141 321.82 359.383 319.982C360.682 310.133 354.1 299.827 344.618 296.863C343.502 296.514 343.761 294.704 344.74 294.065C345.719 293.426 346.98 293.469 348.098 293.128C351.127 292.202 352.52 288.752 353.212 285.661C354.162 281.414 354.428 276.571 351.796 273.105C348.239 268.421 341.323 268.427 335.459 268.876L325.944 269.605C322.66 269.856 318.432 271.014 318.278 274.304C317.946 281.39 314.825 288.448 309.31 292.91C303.795 297.372 295.853 298.915 289.306 296.184C282.863 293.496 278.311 286.482 279.055 279.557L279.095 279.222C279.483 276.292 279.27 273.112 277.554 270.706C275.837 268.301 272.272 267.069 269.787 268.668ZM348.379 157.935C344.136 159.142 340.061 161.087 336.711 163.957C332.03 167.968 328.918 173.765 328.16 179.883C327.892 182.051 328.323 184.846 330.428 185.429C335.571 186.851 340.173 190.15 343.171 194.564C338.309 191.671 332.979 189.566 327.452 188.356L350.813 201.574C352.167 202.34 353.573 203.154 354.425 204.456C355.276 205.758 355.365 207.702 354.195 208.728L352.562 207.457C348.47 204.289 344.286 201.218 339.705 198.821C336.222 196.998 332.546 195.584 328.849 194.237L326.832 193.507C319.989 191.038 313.085 188.554 305.878 187.567C299.188 186.652 292.32 187.058 285.786 188.757L284.497 189.087C275.669 191.321 266.465 193.147 259.167 198.544C254.825 201.755 251.425 206.053 248.197 210.382L247.436 211.415C241.022 220.22 235.162 231.077 238.914 241.18C256.142 239.058 269.564 225.728 285.171 218.13C286.364 217.549 288.331 217.371 288.513 218.685L271.049 229.005C271.533 231.67 271.075 234.497 269.773 236.873C282.533 233.267 294.462 226.757 304.401 217.981L305.033 217.418C306.609 215.999 309.647 214.824 310.319 216.837L309.464 217.314C306.33 219.077 303.212 221.005 301.052 223.86C298.695 226.974 297.757 231.501 299.846 234.801L321.892 221.82C322.788 221.293 323.765 220.747 324.798 220.855C325.832 220.964 326.801 222.077 326.354 223.015L325.605 223.172C323.225 223.677 320.812 224.311 318.959 225.861C316.911 227.574 315.85 230.786 317.372 232.98C320.102 236.915 322.317 241.207 323.943 245.712C323.979 243.742 326.664 242.735 328.434 243.6C330.204 244.465 331.141 246.417 331.782 248.279C333.617 253.608 334.102 259.396 333.179 264.956C338.723 266.914 345.225 264.602 350.558 267.078C355.508 269.376 357.929 275.338 357.585 280.784C357.241 286.231 354.668 291.267 351.919 295.981C359.6 301.932 363.704 312.183 362.25 321.79C363.59 321.571 364.721 320.416 364.911 319.072L367.957 320.994C363.193 323.687 359.803 328.685 359.063 334.108C379.997 314.519 386.947 283.471 383.926 254.961L383.808 253.898C382.611 243.602 379.763 232.87 372.021 226.051C376.172 223.657 381.496 224.599 385.937 222.802C390.134 221.104 393.018 217.168 394.966 213.081C401.479 199.419 399.236 182.036 389.469 170.474C379.702 158.912 362.938 153.797 348.379 157.935ZM279.945 329.277C280.605 329.387 281.354 329.61 281.613 330.227C282.026 331.213 280.868 332.114 279.867 332.487C278.413 333.029 276.886 333.376 275.341 333.515C274.045 333.633 272.409 333.382 272.008 332.144C271.744 331.329 272.202 330.414 272.895 329.912C273.588 329.41 274.465 329.24 275.316 329.148C276.855 328.981 278.417 329.025 279.945 329.277ZM256.264 315.149C260.82 320.503 267.946 323.338 274.976 323.394C282.006 323.449 288.903 320.908 294.739 316.988L295.23 316.659C295.971 316.166 296.74 315.703 297.61 315.552C298.672 315.367 299.936 315.813 300.297 316.829C294.193 322.014 286.541 325.438 278.565 326.162C270.588 326.885 262.327 324.839 255.819 320.172C254.645 319.329 253.431 318.221 253.382 316.777C253.334 315.333 255.327 314.049 256.264 315.149ZM160.772 292.471C157.605 293.482 154.416 294.962 152.418 297.62C149.449 301.568 149.968 307.558 153.175 311.315C156.381 315.072 161.803 316.572 166.641 315.574C171.478 314.575 175.678 311.311 178.397 307.187C181.115 303.063 182.446 298.139 182.849 293.216C182.917 292.391 182.767 291.298 181.953 291.147C174.927 289.84 167.58 290.299 160.772 292.471ZM273.027 273.235C273.159 274.37 272.72 275.484 272.316 276.554C270.035 282.596 268.646 288.975 268.209 295.42C268.138 296.464 268.098 297.546 268.481 298.52C268.842 299.44 269.681 300.24 270.654 300.295L270.827 300.296C271.713 300.265 272.133 301.585 271.576 302.274C271.019 302.964 269.974 303.041 269.124 302.788C267.38 302.269 266.13 300.646 265.624 298.898C265.118 297.15 265.247 295.284 265.501 293.482C266.36 287.373 268.59 281.449 268.7 275.281C268.73 273.54 269.086 271.194 270.822 271.055C271.961 270.965 272.895 272.099 273.027 273.235ZM294.705 252.616C291.082 253.362 288.317 256.334 286.438 259.52C282.588 266.047 281.492 274.141 283.465 281.457C284.351 284.742 285.866 287.917 288.242 290.352C290.618 292.787 293.92 294.422 297.322 294.365C299.696 294.326 302.001 293.483 304.064 292.306C310.952 288.376 315.328 280.411 314.952 272.49C314.575 264.568 309.464 257.054 302.234 253.795C299.879 252.734 297.235 252.096 294.705 252.616ZM244.703 249.369C238.23 251.767 234.051 258.489 233.16 265.335C232.27 272.181 234.19 279.105 236.927 285.443C237.664 287.15 238.502 288.885 239.917 290.09C241.332 291.296 243.475 291.836 245.083 290.903C245.832 290.469 246.531 291.485 247.099 292.138C248.231 293.439 250.222 293.549 251.912 293.212C257.483 292.098 261.764 287.231 263.497 281.821C265.172 276.591 264.814 270.931 263.824 265.519L263.72 264.96C262.676 259.503 260.318 253.369 255.004 251.744C252.218 250.892 248.857 251.39 246.704 249.428C246.184 248.954 245.363 249.124 244.703 249.369ZM347.574 272.509C349.764 274.935 348.868 278.702 347.772 281.815L347.683 282.066C347.245 283.287 346.791 284.537 345.953 285.527C345.115 286.517 343.799 287.208 342.529 286.944C341.259 286.679 340.27 285.207 340.803 284.025C341.465 282.557 343.716 282.482 344.528 281.092L342.333 280.885C340.856 280.746 339.265 280.558 338.17 279.556C337.075 278.553 336.938 276.432 338.269 275.775C339.192 275.32 340.303 275.766 341.157 276.34C342.011 276.914 342.828 277.64 343.844 277.796C344.861 277.953 346.098 277.154 345.888 276.147C345.597 274.745 346.316 273.192 347.574 272.509ZM297.491 281.98C297.665 282.944 297.728 283.967 297.367 284.879C297.006 285.79 296.126 286.552 295.147 286.511C293.631 286.448 292.819 284.702 292.554 283.207C292.226 281.36 292.738 278.819 294.608 278.682C296.208 278.564 297.207 280.4 297.491 281.98ZM250.768 278.06C251.523 279.161 251.416 280.632 251.116 281.933C250.732 283.597 249.767 285.454 248.068 285.628C246.533 285.785 245.223 284.412 244.721 282.953C244.109 281.173 244.406 278.999 245.796 277.729C247.185 276.459 249.703 276.508 250.768 278.06ZM252.182 259.274C252.861 259.586 253.339 260.44 252.995 261.103L252.339 261.275C248.605 262.272 244.624 263.659 242.84 267.035C242.412 267.844 242.135 268.737 241.603 269.482C241.071 270.226 240.173 270.818 239.278 270.629C238.257 270.415 237.666 269.24 237.775 268.203C237.884 267.165 238.516 266.261 239.192 265.467C241.941 262.237 245.815 259.984 249.981 259.191C250.715 259.052 251.504 258.962 252.182 259.274ZM299.912 261.139C301.028 262.039 301.877 263.238 303.005 264.123C303.959 264.871 305.163 265.462 305.597 266.593C306.03 267.725 304.727 269.323 303.781 268.565C301.312 266.587 298.572 264.948 295.661 263.71C294.341 263.148 294.641 260.928 295.928 260.295C297.215 259.663 298.795 260.239 299.912 261.139ZM286.08 254.042C283.647 254.845 281.918 257.405 282.083 259.962C283.013 259.486 283.722 258.596 283.979 257.582L283.942 257.48C285.022 256.626 285.792 255.389 286.08 254.042Z" fill="#00160A"/>
<path fill-rule="evenodd" clip-rule="evenodd" d="M148.97 560.467C149.949 560.475 150.85 560.929 151.705 561.428L152.167 561.702C157.41 564.841 162.941 567.496 168.67 569.622C169.457 569.914 169.212 571.236 168.445 571.577C167.678 571.918 166.792 571.614 166.01 571.309L149.093 564.727C148.01 564.306 146.754 563.664 146.659 562.506C146.564 561.353 147.813 560.456 148.97 560.467Z" fill="#E7EAEE"/>
<path fill-rule="evenodd" clip-rule="evenodd" d="M122.002 542.036L174.334 560.6L174.663 560.722C176.046 561.263 177.542 562.188 177.394 563.616C177.274 564.78 175.986 565.53 174.816 565.491C173.827 565.458 172.913 565.018 172.039 564.534L171.565 564.268C164.269 560.129 156.613 556.715 148.762 553.766C139.867 550.424 130.722 547.678 121.562 545.151C120.161 544.764 118.386 543.513 119.189 542.302C119.753 541.452 121.041 541.695 122.002 542.036Z" fill="#E7EAEE"/>
</svg>
