<svg width="424" height="60" viewBox="0 0 424 60" fill="none" xmlns="http://www.w3.org/2000/svg">
<path d="M19.8388 38.0846L7.15392 39.8409L12.3386 28.1315L19.8388 38.0846Z" stroke="white" stroke-width="2"/>
<rect x="33.7363" y="10.0704" width="15.5181" height="28.1782" rx="5" transform="rotate(53 33.7363 10.0704)" stroke="white" stroke-width="2"/>
<rect x="41.2607" y="4.40045" width="15.5181" height="8.30476" rx="4" transform="rotate(53 41.2607 4.40045)" stroke="white" stroke-width="2"/>
<rect x="5.51074" y="41.0676" width="45.1761" height="1.61343" fill="white"/>
<rect x="5.51074" y="41.0676" width="45.1761" height="1.61343" stroke="white"/>
<path d="M64.096 43V17.08H67.156L82.024 38.896L81.592 38.968V17.08H84.4V43H81.34L66.472 21.184L66.904 21.112V43H64.096ZM98.0198 43.36C96.2198 43.36 94.6358 42.94 93.2678 42.1C91.8998 41.26 90.8318 40.12 90.0638 38.68C89.3198 37.216 88.9478 35.572 88.9478 33.748C88.9478 31.9 89.3318 30.268 90.0998 28.852C90.8678 27.436 91.9238 26.32 93.2678 25.504C94.6358 24.688 96.2198 24.28 98.0198 24.28C99.8438 24.28 101.428 24.688 102.772 25.504C104.14 26.32 105.196 27.436 105.94 28.852C106.708 30.268 107.092 31.9 107.092 33.748C107.092 35.572 106.708 37.216 105.94 38.68C105.196 40.12 104.14 41.26 102.772 42.1C101.428 42.94 99.8438 43.36 98.0198 43.36ZM98.0198 40.912C99.2678 40.912 100.348 40.612 101.26 40.012C102.172 39.388 102.88 38.536 103.384 37.456C103.888 36.376 104.14 35.128 104.14 33.712C104.14 31.6 103.576 29.908 102.448 28.636C101.344 27.364 99.8678 26.728 98.0198 26.728C96.1958 26.728 94.7198 27.364 93.5918 28.636C92.4638 29.908 91.8998 31.6 91.8998 33.712C91.8998 35.128 92.1518 36.376 92.6558 37.456C93.1598 38.536 93.8678 39.388 94.7798 40.012C95.7158 40.612 96.7958 40.912 98.0198 40.912ZM118.579 43.324C116.539 43.324 115.051 42.868 114.115 41.956C113.203 41.02 112.747 39.676 112.747 37.924V20.356L115.627 19.276V37.888C115.627 38.92 115.891 39.676 116.419 40.156C116.947 40.636 117.811 40.876 119.011 40.876C119.491 40.876 119.899 40.852 120.235 40.804C120.595 40.732 120.883 40.648 121.099 40.552V43C120.859 43.096 120.511 43.168 120.055 43.216C119.623 43.288 119.131 43.324 118.579 43.324ZM108.967 27.088V24.64H121.099V27.088H108.967ZM131.943 43.36C130.191 43.36 128.643 42.952 127.299 42.136C125.955 41.296 124.899 40.156 124.131 38.716C123.363 37.276 122.979 35.62 122.979 33.748C122.979 31.876 123.351 30.232 124.095 28.816C124.863 27.376 125.931 26.26 127.299 25.468C128.667 24.676 130.239 24.28 132.015 24.28C133.719 24.28 135.195 24.652 136.443 25.396C137.715 26.14 138.687 27.184 139.359 28.528C140.055 29.872 140.403 31.456 140.403 33.28C140.403 33.52 140.391 33.748 140.367 33.964C140.367 34.18 140.343 34.42 140.295 34.684H125.139V32.272H138.531L137.595 33.604C137.595 31.396 137.103 29.704 136.119 28.528C135.159 27.328 133.791 26.728 132.015 26.728C130.191 26.728 128.715 27.364 127.587 28.636C126.483 29.884 125.931 31.576 125.931 33.712C125.931 35.896 126.483 37.648 127.587 38.968C128.715 40.264 130.215 40.912 132.087 40.912C133.263 40.912 134.295 40.66 135.183 40.156C136.071 39.628 136.719 38.884 137.127 37.924H139.863C139.263 39.604 138.255 40.936 136.839 41.92C135.447 42.88 133.815 43.36 131.943 43.36Z" fill="white"/>
<path d="M156.479 43.36C153.839 43.36 151.547 42.82 149.603 41.74C147.659 40.66 146.159 39.148 145.103 37.204C144.047 35.236 143.519 32.92 143.519 30.256C143.519 27.592 144.035 25.252 145.067 23.236C146.123 21.196 147.575 19.6 149.423 18.448C151.295 17.296 153.443 16.72 155.867 16.72C157.763 16.72 159.479 17.08 161.015 17.8C162.575 18.52 163.847 19.516 164.831 20.788C165.839 22.06 166.451 23.536 166.667 25.216H163.715C163.475 23.44 162.647 22.024 161.231 20.968C159.839 19.912 158.087 19.384 155.975 19.384C154.079 19.384 152.423 19.84 151.007 20.752C149.591 21.64 148.487 22.888 147.695 24.496C146.927 26.104 146.543 28 146.543 30.184C146.543 32.368 146.939 34.252 147.731 35.836C148.547 37.396 149.711 38.596 151.223 39.436C152.759 40.276 154.595 40.696 156.731 40.696C158.195 40.696 159.503 40.492 160.655 40.084C161.807 39.652 162.851 38.992 163.787 38.104L166.739 39.184C165.419 40.576 163.895 41.62 162.167 42.316C160.463 43.012 158.567 43.36 156.479 43.36ZM163.787 39.184V30.796L164.903 31.912H156.695V29.32H166.739V39.184H163.787ZM179.758 43.36C177.958 43.36 176.374 42.94 175.006 42.1C173.638 41.26 172.57 40.12 171.802 38.68C171.058 37.216 170.686 35.572 170.686 33.748C170.686 31.9 171.07 30.268 171.838 28.852C172.606 27.436 173.662 26.32 175.006 25.504C176.374 24.688 177.958 24.28 179.758 24.28C181.582 24.28 183.166 24.688 184.51 25.504C185.878 26.32 186.934 27.436 187.678 28.852C188.446 30.268 188.83 31.9 188.83 33.748C188.83 35.572 188.446 37.216 187.678 38.68C186.934 40.12 185.878 41.26 184.51 42.1C183.166 42.94 181.582 43.36 179.758 43.36ZM179.758 40.912C181.006 40.912 182.086 40.612 182.998 40.012C183.91 39.388 184.618 38.536 185.122 37.456C185.626 36.376 185.878 35.128 185.878 33.712C185.878 31.6 185.314 29.908 184.186 28.636C183.082 27.364 181.606 26.728 179.758 26.728C177.934 26.728 176.458 27.364 175.33 28.636C174.202 29.908 173.638 31.6 173.638 33.712C173.638 35.128 173.89 36.376 174.394 37.456C174.898 38.536 175.606 39.388 176.518 40.012C177.454 40.612 178.534 40.912 179.758 40.912Z" fill="#20C030"/>
<rect x="204" y="4" width="3" height="48" fill="white"/>
<path d="M304.04 43V40.552H312.32C313.904 40.552 315.164 40.12 316.1 39.256C317.036 38.392 317.504 37.228 317.504 35.764C317.504 34.204 317.012 32.956 316.028 32.02C315.044 31.084 313.724 30.616 312.068 30.616H304.04V28.24H311.672C313.304 28.24 314.576 27.844 315.488 27.052C316.4 26.26 316.856 25.144 316.856 23.704C316.856 22.36 316.424 21.328 315.56 20.608C314.72 19.888 313.484 19.528 311.852 19.528H304.04V17.08H312.104C314.48 17.08 316.352 17.644 317.72 18.772C319.112 19.9 319.808 21.436 319.808 23.38C319.808 24.604 319.532 25.696 318.98 26.656C318.428 27.616 317.672 28.372 316.712 28.924C315.752 29.452 314.648 29.716 313.4 29.716L313.58 28.96C314.9 28.96 316.076 29.272 317.108 29.896C318.164 30.52 318.992 31.372 319.592 32.452C320.216 33.508 320.528 34.72 320.528 36.088C320.528 37.456 320.192 38.668 319.52 39.724C318.872 40.756 317.948 41.56 316.748 42.136C315.548 42.712 314.156 43 312.572 43H304.04ZM302.096 43V17.08H305.048V43H302.096ZM324.983 43V17.08H329.519L338.879 42.064H337.511L346.799 17.08H351.407V43H348.491V18.628H348.887L339.851 43H336.323L327.287 18.844H327.683V43H324.983ZM366.392 43.324C363.368 43.324 360.956 42.58 359.156 41.092C357.38 39.604 356.336 37.48 356.024 34.72H358.904C359.168 36.712 359.924 38.212 361.172 39.22C362.42 40.228 364.148 40.732 366.356 40.732C368.228 40.732 369.632 40.384 370.568 39.688C371.528 38.968 372.008 37.924 372.008 36.556C372.008 35.38 371.684 34.444 371.036 33.748C370.388 33.052 369.38 32.476 368.012 32.02L363.656 30.508C361.448 29.74 359.816 28.816 358.76 27.736C357.704 26.632 357.176 25.24 357.176 23.56C357.176 22.168 357.524 20.968 358.22 19.96C358.916 18.928 359.9 18.124 361.172 17.548C362.444 16.972 363.92 16.684 365.6 16.684C368.192 16.684 370.268 17.368 371.828 18.736C373.388 20.08 374.288 22 374.528 24.496H371.648C371.336 22.696 370.688 21.376 369.704 20.536C368.744 19.696 367.352 19.276 365.528 19.276C363.8 19.276 362.456 19.624 361.496 20.32C360.536 21.016 360.056 22 360.056 23.272C360.056 24.352 360.392 25.216 361.064 25.864C361.736 26.512 362.78 27.076 364.196 27.556L368.84 29.176C370.856 29.872 372.368 30.82 373.376 32.02C374.384 33.196 374.888 34.696 374.888 36.52C374.888 38.68 374.144 40.36 372.656 41.56C371.192 42.736 369.104 43.324 366.392 43.324ZM390.49 43.36C388.714 43.36 387.07 43.036 385.558 42.388C384.07 41.716 382.774 40.792 381.67 39.616C380.566 38.416 379.714 37.012 379.114 35.404C378.514 33.772 378.214 31.984 378.214 30.04C378.214 28.096 378.514 26.32 379.114 24.712C379.714 23.08 380.554 21.676 381.634 20.5C382.738 19.3 384.034 18.376 385.522 17.728C387.034 17.056 388.678 16.72 390.454 16.72C392.398 16.72 394.138 17.116 395.674 17.908C397.234 18.7 398.506 19.816 399.49 21.256C400.498 22.696 401.122 24.376 401.362 26.296H398.41C398.122 24.16 397.27 22.48 395.854 21.256C394.462 20.008 392.674 19.384 390.49 19.384C388.642 19.384 387.022 19.84 385.63 20.752C384.238 21.64 383.158 22.888 382.39 24.496C381.622 26.08 381.238 27.928 381.238 30.04C381.238 32.152 381.622 34.012 382.39 35.62C383.158 37.204 384.238 38.452 385.63 39.364C387.022 40.252 388.63 40.696 390.454 40.696C392.686 40.696 394.51 40.072 395.926 38.824C397.366 37.576 398.218 35.896 398.482 33.784H401.434C401.194 35.704 400.57 37.384 399.562 38.824C398.578 40.264 397.306 41.38 395.746 42.172C394.21 42.964 392.458 43.36 390.49 43.36ZM406.194 43V17.08H409.146V43H406.194ZM407.706 43V40.408H423.546V43H407.706ZM407.706 30.796V28.204H422.25V30.796H407.706ZM407.706 19.672V17.08H423.258V19.672H407.706Z" fill="white"/>
<path d="M254.275 0.0732582C255.191 -0.079393 256.153 0.0630814 257.089 0.00710934C257.354 0.546477 257.578 1.1062 257.761 1.68118C257.949 2.44953 257.802 3.28911 258.076 4.04219C258.575 4.66806 259.715 4.70368 260.219 4.06254C260.641 3.29929 260.697 2.36811 261.252 1.6761C261.542 1.31482 261.755 0.826337 262.198 0.638068C263.058 0.795807 263.913 1.02987 264.737 1.325C265.017 1.69136 264.915 2.2002 264.992 2.62762C265.139 3.54862 264.752 4.42382 264.686 5.32446C264.864 6.01648 265.668 6.3574 266.33 6.26072C266.859 6.19457 267.073 5.65012 267.353 5.27866C267.866 4.41364 268.635 3.63512 269.546 3.22805C270.365 3.61477 271.169 4.06254 271.902 4.59682C271.963 5.00898 271.835 5.41605 271.785 5.82312C271.688 6.82553 271.031 7.6244 270.721 8.55558C270.96 9.30357 271.785 9.9447 272.583 9.66484C273.336 9.21198 273.866 8.43854 274.695 8.1078C275.123 7.93479 275.535 7.63967 276.008 7.66511C276.634 8.10271 277.112 8.7184 277.667 9.23742C278.196 9.65466 277.662 10.2856 277.499 10.7588C277.163 11.6595 276.323 12.2243 275.855 13.0384C275.652 13.8373 276.481 14.6871 277.275 14.6667C278.074 14.4276 278.74 13.8627 279.575 13.7254C280.063 13.6439 280.552 13.532 281.05 13.5218C281.524 14.051 281.788 14.7227 282.18 15.3129C282.302 15.5724 282.577 15.893 282.373 16.1729C281.89 16.8191 281.407 17.5009 280.699 17.9131C280.297 18.2082 279.804 18.427 279.509 18.8443C279.249 19.5821 279.758 20.5082 280.511 20.6863C281.478 20.6659 282.409 20.1978 283.376 20.4166C283.752 20.5031 284.215 20.4064 284.521 20.6659C284.801 21.5157 285.055 22.3807 285.203 23.261C284.897 23.6884 284.414 23.9377 284.002 24.2481C283.294 24.7671 282.343 24.7773 281.636 25.2861C281.188 25.7899 281.376 26.5684 281.727 27.0671C282.063 27.5352 282.709 27.4284 283.213 27.4792C284.165 27.4894 285.086 27.8354 285.92 28.2679C286.088 29.1889 285.93 30.1557 285.986 31.0971C285.406 31.3718 284.811 31.6161 284.195 31.7942C283.493 31.901 282.77 31.8603 282.078 32.0232C281.346 32.415 281.279 33.5751 281.844 34.145C282.526 34.603 283.401 34.6386 284.083 35.0914C284.485 35.3611 284.882 35.6308 285.238 35.9616C285.462 36.1498 285.279 36.4806 285.259 36.7248C285.07 37.3914 284.933 38.0783 284.678 38.7195C284.623 38.7551 284.505 38.8314 284.449 38.867C283.559 39.0146 282.628 39.1011 281.742 38.8619C281.274 38.8212 280.72 38.5057 280.302 38.8568C279.763 39.2792 279.524 40.1442 279.906 40.7446C280.516 41.34 281.376 41.6351 281.915 42.3118C282.2 42.6579 282.501 42.9988 282.74 43.3804C282.816 43.645 282.602 43.874 282.501 44.108C282.134 44.6983 281.849 45.3445 281.412 45.8839C280.933 45.9907 280.445 45.7872 279.967 45.7465C279.051 45.6346 278.343 44.968 277.458 44.7594C276.654 44.8001 276.013 45.7618 276.298 46.5199C276.705 47.273 277.468 47.7717 277.824 48.5604C278.018 49.0285 278.343 49.4814 278.328 50.0106C277.906 50.6364 277.275 51.1046 276.761 51.6643C276.349 52.1986 275.718 51.6643 275.245 51.5065C274.339 51.1656 273.774 50.3209 272.955 49.8528C272.166 49.6493 271.296 50.4838 271.352 51.2826C271.545 52.0917 272.151 52.7481 272.278 53.5826C272.354 54.066 272.477 54.5545 272.466 55.048C271.993 55.5111 271.347 55.7299 270.808 56.1013C270.528 56.2336 270.248 56.5084 269.917 56.427C269.49 56.1675 269.113 55.8215 268.737 55.5009C268.106 54.9565 267.831 54.127 267.236 53.5571C266.508 53.1959 265.48 53.7302 265.312 54.5189C265.307 55.4246 265.775 56.2896 265.597 57.2004C265.495 57.6329 265.617 58.157 265.332 58.5285C264.478 58.8287 263.587 59.0068 262.717 59.2409C262.3 58.7931 261.923 58.2995 261.603 57.7805C261.206 57.1088 261.185 56.254 260.702 55.6281C260.091 55.1142 258.972 55.4144 258.636 56.1217C258.448 56.8646 258.585 57.6584 258.351 58.3962C258.173 58.9152 258.005 59.4444 257.73 59.9278C256.809 60.0804 255.843 59.9329 254.906 59.9889C254.621 59.4139 254.377 58.8185 254.204 58.1977C254.092 57.5006 254.138 56.7781 253.98 56.0861C253.604 55.3483 252.439 55.2872 251.864 55.8317C251.604 56.1573 251.512 56.5847 251.375 56.9714C251.105 57.8823 250.571 58.8033 249.808 59.363C248.948 59.2002 248.088 58.9712 247.264 58.671C246.979 58.3097 247.08 57.8059 247.009 57.3836C246.857 56.4626 247.238 55.5772 247.309 54.6715C247.131 53.9846 246.327 53.6335 245.666 53.7403C245.045 53.837 244.837 54.5189 244.491 54.9514C244.089 55.6637 243.412 56.1471 242.776 56.6407C242.547 56.89 242.236 56.6865 242.002 56.5644C241.341 56.2031 240.7 55.8113 240.064 55.4195C240.125 54.7173 240.196 53.9998 240.415 53.3282C240.689 52.6972 241.03 52.0917 241.275 51.4455C241.046 50.6924 240.201 50.0513 239.402 50.3362C238.629 50.8145 238.079 51.6185 237.199 51.934C236.736 52.1121 236.115 52.6056 235.688 52.107C235.164 51.5879 234.614 51.0842 234.131 50.5245C233.998 50.0818 234.344 49.6544 234.492 49.2473C234.802 48.4688 235.443 47.9091 235.947 47.2679C236.624 46.469 235.611 45.2885 234.716 45.3242C233.922 45.5735 233.25 46.1434 232.416 46.2757C231.927 46.3571 231.439 46.469 230.945 46.4741C230.421 45.833 230.07 45.0697 229.648 44.3675C229.332 43.8638 229.933 43.4822 230.177 43.1056C230.737 42.2711 231.729 41.9302 232.426 41.2382C232.904 40.3732 231.978 38.9993 230.961 39.3555C230.182 39.4929 229.403 39.7524 228.61 39.5743C228.238 39.4878 227.765 39.6048 227.465 39.3199C227.2 38.4752 226.941 37.6153 226.793 36.735C227.073 36.333 227.526 36.0939 227.913 35.8089C228.61 35.2797 229.521 35.2237 230.263 34.7861C230.833 34.3384 230.635 33.453 230.274 32.934C229.938 32.4658 229.302 32.5676 228.798 32.5167C227.836 32.5167 226.915 32.1554 226.066 31.7382C225.954 30.8121 226.015 29.8606 226.035 28.9243C226.381 28.6394 226.849 28.558 227.256 28.3799C228.096 28.0084 229.042 28.2069 229.917 27.9728C230.65 27.5861 230.716 26.4259 230.162 25.8611C229.795 25.5914 229.342 25.4897 228.92 25.337C228.014 25.0826 227.231 24.4974 226.579 23.836C226.854 22.9811 226.986 22.0856 227.327 21.2612C227.699 20.9814 228.208 21.0781 228.64 21.0068C229.551 20.8694 230.426 21.246 231.332 21.3172C232.309 21.0424 232.691 19.4142 231.693 18.9206C230.762 18.3812 229.943 17.679 229.353 16.7733C229.083 16.5036 229.363 16.1576 229.485 15.8981C229.856 15.3028 230.141 14.6464 230.594 14.1121C230.996 14.0052 231.418 14.1782 231.826 14.2189C232.828 14.3105 233.632 14.9618 234.558 15.2773C235.306 15.0331 235.937 14.2138 235.662 13.415C235.194 12.6263 234.38 12.0818 234.059 11.1964C233.886 10.7385 233.393 10.1126 233.881 9.6852C234.405 9.16618 234.909 8.62681 235.459 8.13324C235.54 8.12306 235.708 8.1078 235.789 8.10271C236.604 8.38766 237.418 8.74385 238.038 9.35954C238.456 9.6852 238.822 10.2144 239.402 10.194C240.064 10.0414 240.669 9.43586 240.669 8.72858C240.435 7.92462 239.855 7.25295 239.723 6.41846C239.646 5.92998 239.519 5.44658 239.534 4.95301C240.038 4.46452 240.725 4.21519 241.305 3.82848C241.565 3.70636 241.885 3.41123 242.18 3.62494C242.898 4.13887 243.61 4.71385 244.048 5.49746C244.373 5.93506 244.648 6.64744 245.315 6.56093C245.915 6.50496 246.561 6.10298 246.689 5.47711C246.689 4.57647 246.221 3.71144 246.399 2.80063C246.5 2.36811 246.383 1.8491 246.653 1.47256C247.513 1.16726 248.409 0.989165 249.289 0.7551C249.665 1.17744 250.016 1.6303 250.327 2.10861C250.78 2.80063 250.795 3.70636 251.299 4.36784C251.909 4.87668 253.019 4.58156 253.36 3.87936C253.563 3.09575 253.39 2.25108 253.68 1.47765C253.858 1.00443 253.996 0.500682 254.275 0.0732582ZM253.12 5.80277C250.892 6.06227 248.688 6.62708 246.612 7.48702C241.738 9.49693 237.596 13.1809 234.904 17.7045C231.77 22.9658 230.838 29.4332 232.156 35.3967C233.204 40.2154 235.82 44.6525 239.458 47.9752C243.636 51.9136 249.284 54.2135 255.018 54.4018C259.985 54.6155 265.027 53.2824 269.184 50.5448C273.866 47.4715 277.545 42.8156 279.214 37.4474C280.883 32.1605 280.715 26.2987 278.689 21.134C276.797 16.2543 273.24 12.0767 268.823 9.29339C264.193 6.37266 258.55 5.1769 253.12 5.80277Z" fill="white"/>
<path d="M258.271 14.6005C258.444 14.4173 258.627 14.2443 258.815 14.0764C258.886 14.3766 258.952 14.6768 259.024 14.9771C259.197 14.6819 259.385 14.397 259.599 14.1324C259.756 14.4479 259.935 14.7583 260.102 15.0686C259.751 15.3994 259.339 15.3587 259.003 15.0381C258.963 15.0992 258.876 15.2213 258.835 15.2824C258.596 15.1755 258.362 15.0737 258.123 14.9771C258.164 14.8804 258.235 14.6921 258.271 14.6005ZM258.484 14.6921C258.556 14.7786 258.556 14.7786 258.484 14.6921ZM259.421 14.8498C259.955 14.5751 259.441 15.4503 259.421 14.8498Z" fill="#FAFCFD"/>
<path d="M254.947 32.8271L254.983 32.8322L255.232 32.8526C254.458 34.0534 253.568 35.1729 252.759 36.3534L252.728 36.5518C252.723 36.6129 252.718 36.735 252.713 36.7961C252.647 36.7859 252.515 36.7757 252.449 36.7655C252.25 37.0352 252.062 37.31 251.879 37.5899C251.97 37.6051 252.153 37.6407 252.245 37.6611L252.225 37.6916C252.108 37.8494 251.98 37.9969 251.848 38.1445C251.858 38.0173 251.874 37.7578 251.879 37.6255C251.609 37.9053 251.37 38.2208 251.238 38.5923C251.146 38.6075 250.963 38.6381 250.871 38.6533H250.785C252.194 36.7299 253.563 34.7709 254.947 32.8271Z" fill="#FAFCFD"/>
<path d="M255.909 10.9519C266.524 10.9519 275.123 19.5105 275.123 30.0689C275.123 40.6222 266.524 49.1809 255.909 49.1809C245.3 49.1809 236.701 40.6222 236.701 30.0689C236.701 19.5105 245.3 10.9519 255.909 10.9519Z" fill="url(#paint0_linear_0_1)"/>
<mask id="mask0_0_1" style="mask-type:luminance" maskUnits="userSpaceOnUse" x="236" y="10" width="40" height="40">
<path d="M255.909 10.9519C266.524 10.9519 275.123 19.5105 275.123 30.0689C275.123 40.6222 266.524 49.1809 255.909 49.1809C245.3 49.1809 236.701 40.6222 236.701 30.0689C236.701 19.5105 245.3 10.9519 255.909 10.9519Z" fill="white"/>
</mask>
<g mask="url(#mask0_0_1)">
<path d="M236.319 47.1406C279.128 47.1406 279.128 47.1406 279.128 47.1406" stroke="white" stroke-width="0.853415"/>
<path d="M235.877 44.8557C278.68 44.8557 278.68 44.8557 278.68 44.8557" stroke="white" stroke-width="0.853415"/>
<path d="M235.571 42.9324C278.375 42.9324 278.375 42.9324 278.375 42.9324" stroke="white" stroke-width="0.853415"/>
<path d="M235.368 41.4163C278.176 41.4163 278.176 41.4163 278.176 41.4163" stroke="white" stroke-width="0.853415"/>
<path d="M235.2 40.1846C278.004 40.1846 278.004 40.1846 278.004 40.1846" stroke="white" stroke-width="0.853415"/>
<path d="M235.067 39.0605C277.871 39.0605 277.871 39.0605 277.871 39.0605" stroke="white" stroke-width="0.853415"/>
<path d="M234.899 38.1497C277.703 38.1497 277.703 38.1497 277.703 38.1497" stroke="white" stroke-width="0.853415"/>
<path d="M234.584 37.0657C277.387 37.0657 277.387 37.0657 277.387 37.0657" stroke="white" stroke-width="0.853415"/>
<path d="M236.273 31.916C274.965 31.916 274.965 31.916 274.965 31.916" stroke="white" stroke-width="3.65854"/>
<path d="M238.329 26.5276C238.329 31.5956 238.329 31.5956 238.329 31.5956" stroke="white" stroke-width="0.853415"/>
<path d="M239.555 26.2478C239.555 31.6211 239.555 31.6211 239.555 31.6211" stroke="white" stroke-width="0.853415"/>
<path d="M240.781 25.8052C240.781 31.6517 240.781 31.6517 240.781 31.6517" stroke="white" stroke-width="0.853415"/>
<path d="M242.008 25.2502C242.008 31.6819 242.008 31.6819 242.008 31.6819" stroke="white" stroke-width="0.853415"/>
<path d="M243.234 24.4563C243.234 31.7123 243.234 31.7123 243.234 31.7123" stroke="white" stroke-width="0.853415"/>
<path d="M244.46 23.3315C244.46 37.0651 244.46 37.0651 244.46 37.0651" stroke="white" stroke-width="0.853415"/>
<path d="M245.687 24.2275C245.687 31.7685 245.687 31.7685 245.687 31.7685" stroke="white" stroke-width="0.853415"/>
<path d="M246.913 25.0466C246.913 31.7989 246.913 31.7989 246.913 31.7989" stroke="white" stroke-width="0.853415"/>
<path d="M248.14 25.7183C248.14 31.8294 248.14 31.8294 248.14 31.8294" stroke="white" stroke-width="0.853415"/>
<path d="M249.365 26.2222C249.365 31.8601 249.365 31.8601 249.365 31.8601" stroke="white" stroke-width="0.853415"/>
<path d="M250.592 26.6594C250.592 31.8852 250.592 31.8852 250.592 31.8852" stroke="white" stroke-width="0.853415"/>
<path d="M251.818 27.0564C251.818 31.9158 251.818 31.9158 251.818 31.9158" stroke="white" stroke-width="0.853415"/>
<path d="M253.044 27.3418C253.044 31.9468 253.044 31.9468 253.044 31.9468" stroke="white" stroke-width="0.853415"/>
<path d="M254.271 27.418C254.271 31.9772 254.271 31.9772 254.271 31.9772" stroke="white" stroke-width="0.853415"/>
<path d="M255.497 27.6318C255.497 32.0078 255.497 32.0078 255.497 32.0078" stroke="white" stroke-width="0.853415"/>
<path d="M256.724 27.6621C256.724 32.033 256.724 32.033 256.724 32.033" stroke="white" stroke-width="0.853415"/>
<path d="M257.95 27.5454C257.95 32.0639 257.95 32.0639 257.95 32.0639" stroke="white" stroke-width="0.853415"/>
<path d="M259.176 27.301C259.176 32.0943 259.176 32.0943 259.176 32.0943" stroke="white" stroke-width="0.853415"/>
<path d="M272.635 26.5935C272.635 31.804 272.635 31.804 272.635 31.804" stroke="white" stroke-width="0.853415"/>
<path d="M271.408 26.166C271.408 31.8294 271.408 31.8294 271.408 31.8294" stroke="white" stroke-width="0.853415"/>
<path d="M270.182 25.6777C270.182 31.8601 270.182 31.8601 270.182 31.8601" stroke="white" stroke-width="0.853415"/>
<path d="M268.956 25.1536C268.956 31.8906 268.956 31.8906 268.956 31.8906" stroke="white" stroke-width="0.853415"/>
<path d="M267.729 24.375C267.729 31.9211 267.729 31.9211 267.729 31.9211" stroke="white" stroke-width="0.853415"/>
<path d="M266.503 23.5408C266.503 37.0657 266.503 37.0657 266.503 37.0657" stroke="white" stroke-width="0.853415"/>
<path d="M265.277 24.4358C265.277 31.9768 265.277 31.9768 265.277 31.9768" stroke="white" stroke-width="0.853415"/>
<path d="M264.051 25.2554C264.051 32.0076 264.051 32.0076 264.051 32.0076" stroke="white" stroke-width="0.853415"/>
<path d="M262.824 25.927C262.824 32.0381 262.824 32.0381 262.824 32.0381" stroke="white" stroke-width="0.853415"/>
<path d="M261.598 26.4309C261.598 32.0688 261.598 32.0688 261.598 32.0688" stroke="white" stroke-width="0.853415"/>
<path d="M260.372 26.8687C260.372 32.0944 260.372 32.0944 260.372 32.0944" stroke="white" stroke-width="0.853415"/>
<path d="M273.785 26.6799C273.785 31.8853 273.785 31.8853 273.785 31.8853" stroke="white" stroke-width="0.853415"/>
<path d="M236.762 26.7715C236.762 26.7715 241.926 26.2627 244.455 23.1995" stroke="white" stroke-width="1.09732"/>
<path d="M244.292 23.2097C244.292 23.2097 249.706 27.8249 256.016 27.5552" stroke="white" stroke-width="1.09732"/>
<path d="M266.575 23.4792C266.575 23.4792 260.728 28.476 254.836 27.5499" stroke="white" stroke-width="1.09732"/>
<path d="M275.006 26.9496C275.006 26.9496 269.607 26.1965 266.422 23.459" stroke="white" stroke-width="1.09732"/>
</g>
<path d="M255.909 10.9519C266.524 10.9519 275.123 19.5105 275.123 30.0689C275.123 40.6222 266.524 49.1809 255.909 49.1809C245.3 49.1809 236.701 40.6222 236.701 30.0689C236.701 19.5105 245.3 10.9519 255.909 10.9519Z" stroke="white" stroke-width="1.21951"/>
<path d="M243.066 44.1082C243.066 44.1082 243.153 44.3118 243.361 44.1642C243.565 44.0115 252.256 34.4403 252.256 34.4403L250.75 38.9791C250.75 38.9791 250.607 39.7729 251.452 38.5924C252.302 37.4119 267.908 15.593 267.938 15.5726C267.964 15.5523 268.198 14.555 267.16 15.7914C266.116 17.0228 257.09 27.4743 257.09 27.4743L257.894 24.233C257.894 24.233 258.316 22.6404 257.197 24.3195C256.082 25.9987 243.244 43.6655 243.244 43.6655C243.244 43.6655 243.061 43.9352 243.061 44.0217C243.066 44.1082 243.066 44.1082 243.066 44.1082Z" fill="url(#paint1_linear_0_1)" stroke="#FFF8C7" stroke-width="0.609756"/>
<defs>
<linearGradient id="paint0_linear_0_1" x1="256.325" y1="7.12468" x2="255.496" y2="53.0088" gradientUnits="userSpaceOnUse">
<stop stop-color="#004EB5"/>
<stop offset="0.521569" stop-color="#3F82CB"/>
<stop offset="1" stop-color="#7FB7E2"/>
</linearGradient>
<linearGradient id="paint1_linear_0_1" x1="268.597" y1="14.91" x2="242.662" y2="43.9576" gradientUnits="userSpaceOnUse">
<stop stop-color="#E30000"/>
<stop offset="1" stop-color="#AB0600"/>
</linearGradient>
</defs>
</svg>
